<?xml version="1.0" encoding="UTF-8"?>
<svg id="a" data-name="logo" xmlns="http://www.w3.org/2000/svg" width="100.012mm" height="43.744mm" viewBox="0 0 283.5 124">
  <path d="M211.2,83.5c10.6,0,13.9-11.2,13.9-21.5s-5.8-21-13.9-21-13.8,11.2-13.7,21.2c0,9.9,2.9,21.4,13.7,21.4v-.1ZM206,61.9c0-4.1,0-13.7,5.2-13.7s5.4,9.5,5.4,13.9,0,14.4-5.2,14.4-5.5-10.1-5.5-14.5h0l.1-.1ZM180.4,83.5c4.3,0,8-1.7,11.5-5.4l-3.1-5.8c-2.4,2.6-4.8,4-7.7,4s-4.4-1.4-5.6-3.8c-1-2.1-1.2-4.5-1.2-7.1v-.8h18v-1.8c0-8.9-1.1-13.8-3.9-17.5-2.1-2.8-5.2-4.3-9-4.3s-7.3,1.8-9.7,5.3c-2.6,3.8-3.7,8.9-3.7,15.9,0,13.4,5.2,21.3,14.4,21.3h0ZM179.5,47.6c2,0,3.2,1.1,4,2.9.6,1.6.9,4.3.9,7.5h-10.1c.1-7.2,1.7-10.4,5.2-10.4h0ZM231.7,82.5h7.8v-30c1.9-2.3,4.1-3.6,5.7-3.6s2,.2,2.6,1c.6.9.9,2.2.9,5.3v27.3h7.8v-30.9c0-2.7-.3-5.4-1.9-7.4-1.4-1.8-3.6-2.9-6.4-2.9s-7.2,2.1-9.3,4.5c0-2.1-.8-4.1-1-4.8l-7.3,1.9c.4,2.2,1,4.9,1,9.8v29.7h0l.1.1ZM141.1,45.8c0-2.1-.8-4.1-1-4.8l-7.3,1.9c.4,2.2,1,4.9,1,9.8v29.7h7.8v-30c1.9-2.3,4.1-3.6,5.7-3.6s2,.2,2.6,1c.6.9.9,2.2.9,5.3v27.3h7.8v-30.9c0-2.7-.3-5.4-1.9-7.4-1.4-1.8-3.6-2.9-6.4-2.9s-7.2,2.1-9.3,4.5h0l.1.1ZM45.7,28.3c4.6,0,8.3-3.7,8.3-8.3s-3.7-8.3-8.3-8.3-8.3,3.7-8.3,8.3,3.7,8.3,8.3,8.3ZM84,82.5v-30.9c0-2.7-.3-5.4-1.9-7.4-1.4-1.8-3.6-2.9-6.4-2.9s-7.2,2.1-9.3,4.5c0-2.1-.8-4.1-1-4.8l-7.3,1.9c.4,2.2,1,4.9,1,9.8v29.7h7.8v-30c1.9-2.3,4.1-3.6,5.7-3.6s2,.2,2.6,1c.6.9.9,2.2.9,5.3v27.3h7.8l.1.1ZM119.9,26.1c-2.9,0-5.2,2.3-5.2,5.2s2.3,5.2,5.1,5.2,5.2-2.3,5.2-5.2-2.3-5.2-5.1-5.2ZM42,82.5h7.8v-48.7l-7.8,1v47.7ZM105.7,30.9c1.4,0,2.8.5,3.7,1.2l2.2-6.1c-2.1-1.5-4.4-2.2-7.3-2.2s-4.1.5-6,2c-1.9,1.6-3.9,4.8-3.9,10.8s.1,5.3.1,5.3h-2.7v6.9h2.7v33.6h8v-33.6h5.9l1.4-6.9h-7.3v-6.2c0-3.1,1.2-4.9,3.1-4.9h0l.1.1ZM115.9,82.5h7.9v-41.2l-7.9,1v40.2Z" fill="#005da9"/>
  <path d="M240.5,104.5c-26.4,7.8-58.5,11.2-89.9,11.2-79.7,0-131.1-23.4-134.7-54.3-1.3-11.6,7.8-22.9,23-32.5-2.7-2-4.4-5.2-4.5-8.8C12.4,31.7,0,46.9,0,62.3c0,34.1,60.9,62.9,151.4,61.7,31.5-.4,57.8-4.9,81.6-12.7,28.3-9.2,46.1-22.4,50.4-28.2-5.2,4.6-17.3,13.9-43,21.5h0l.1-.1ZM72.6,13.7c5.3-1.8,12.8-4.1,12.8-4.1C106.4,3.8,129.7.4,151.4.6c-25-1.5-47.8,0-67.7,3.6,0,0-6.6,1.1-13.7,2.9,0,0-3.4.9-5.5,1.5s-5,1.4-5,1.4c-2,.6-4,1.3-6,2,2,2,3.2,4.6,3.3,7.6,3.4-1.6,10.1-4,15.6-5.9h.2Z" fill="#e30034"/>
</svg>