<svg width="422" height="422" viewBox="0 0 422 422" fill="none" xmlns="http://www.w3.org/2000/svg">
<path d="M274.034 76.9745L233.059 35.9998H138.899L97.9246 76.9745V345.025L138.899 386H233.059L274.034 345.025V76.9745Z" fill="#B8DEDA"/>
<path d="M142.214 378.004L105.921 341.71V80.289L142.214 43.9956H229.75L266.039 80.289V341.71L229.75 378.004H142.214Z" stroke="#DFF4F3" stroke-width="2.02874" stroke-miterlimit="10"/>
<mask id="mask0_14261_606" style="mask-type:luminance" maskUnits="userSpaceOnUse" x="115" y="53" width="142" height="316">
<path d="M145.991 368.889L115.036 337.939V84.0609L145.991 53.1107H225.973L256.923 84.0609V337.939L225.973 368.889H145.991Z" fill="white"/>
</mask>
<g mask="url(#mask0_14261_606)">
<path d="M137.447 377.428L106.497 346.478V92.5997L137.447 61.6495H217.434L248.385 92.5997V346.478L217.434 377.428H137.447Z" fill="#08665C"/>
<mask id="mask1_14261_606" style="mask-type:luminance" maskUnits="userSpaceOnUse" x="106" y="61" width="143" height="317">
<path d="M137.447 377.428L106.497 346.478V92.5997L137.447 61.6495H217.434L248.385 92.5997V346.478L217.434 377.428H137.447Z" fill="white"/>
</mask>
<g mask="url(#mask1_14261_606)">
<path d="M248.985 38.1146L55.9211 231.178V325.648L317.362 64.2025L248.985 38.1146Z" fill="#0A8276"/>
<path d="M232.159 28.4472L67.0266 193.58L84.2947 153.757L229.607 8.4408L232.159 28.4472Z" fill="#0A8276"/>
<path d="M259.719 259.895L94.5862 425.023L111.854 373.018L257.166 227.702L259.719 259.895Z" fill="#0A8276"/>
<path d="M200.995 69.8985C201.514 70.5224 201.428 71.451 200.805 71.9701C200.181 72.4892 199.252 72.4035 198.733 71.7796C198.214 71.1558 198.3 70.2271 198.923 69.708C199.547 69.1889 200.476 69.2746 200.995 69.8985Z" fill="#6CB4AD"/>
<path d="M199.871 91.5336C200.004 91.6907 199.981 91.9288 199.823 92.0622C199.666 92.1955 199.428 92.1717 199.295 92.0145C199.161 91.8574 199.185 91.6193 199.342 91.4859C199.5 91.3526 199.738 91.3764 199.871 91.5336Z" fill="#6CB4AD"/>
<path d="M212.572 125.198C212.863 125.546 212.815 126.06 212.467 126.351C212.12 126.641 211.605 126.594 211.315 126.246C211.024 125.898 211.072 125.384 211.42 125.093C211.767 124.803 212.282 124.851 212.572 125.198Z" fill="#6CB4AD"/>
<path d="M212.181 142.038C212.531 142.038 212.815 141.754 212.815 141.404C212.815 141.055 212.531 140.771 212.181 140.771C211.832 140.771 211.548 141.055 211.548 141.404C211.548 141.754 211.832 142.038 212.181 142.038Z" fill="#6CB4AD"/>
<path d="M176.688 139.914C177.169 140.49 177.088 141.343 176.512 141.824C175.936 142.305 175.083 142.224 174.602 141.647C174.121 141.071 174.202 140.219 174.778 139.738C175.355 139.257 176.207 139.338 176.688 139.914Z" fill="#6CB4AD"/>
<path d="M139.119 144.795C139.523 145.281 139.457 146.005 138.971 146.409C138.485 146.814 137.761 146.748 137.357 146.262C136.952 145.776 137.018 145.052 137.504 144.647C137.99 144.243 138.714 144.309 139.119 144.795Z" fill="#6CB4AD"/>
<path d="M178.364 208.205C178.479 208.343 178.46 208.548 178.322 208.662C178.183 208.776 177.979 208.757 177.864 208.619C177.75 208.481 177.769 208.276 177.907 208.162C178.045 208.048 178.25 208.067 178.364 208.205Z" fill="#6CB4AD"/>
<path d="M165.616 235.279C165.835 235.541 165.797 235.931 165.535 236.15C165.273 236.369 164.882 236.331 164.663 236.069C164.444 235.807 164.482 235.417 164.744 235.198C165.006 234.979 165.397 235.017 165.616 235.279Z" fill="#6CB4AD"/>
<path d="M158.639 237.55C159.277 238.317 159.173 239.455 158.406 240.093C157.639 240.731 156.501 240.627 155.863 239.86C155.225 239.093 155.329 237.955 156.096 237.317C156.863 236.679 158.001 236.783 158.639 237.55Z" fill="#6CB4AD"/>
<path d="M119.822 254.19C120.141 254.575 120.088 255.147 119.703 255.466C119.317 255.785 118.746 255.733 118.426 255.347C118.107 254.961 118.16 254.39 118.546 254.071C118.931 253.752 119.503 253.804 119.822 254.19Z" fill="#6CB4AD"/>
<path d="M147.672 270.196C148.043 270.643 147.986 271.31 147.533 271.686C147.086 272.058 146.419 272.001 146.043 271.548C145.671 271.101 145.728 270.434 146.181 270.058C146.633 269.681 147.295 269.743 147.672 270.196Z" fill="#6CB4AD"/>
<path d="M136.228 329.063C136.733 329.667 136.652 330.567 136.042 331.072C135.437 331.577 134.537 331.491 134.032 330.886C133.528 330.282 133.609 329.382 134.218 328.877C134.828 328.372 135.723 328.458 136.228 329.063Z" fill="#6CB4AD"/>
<path d="M133.494 359.284C133.747 359.284 133.951 359.079 133.951 358.827C133.951 358.574 133.747 358.37 133.494 358.37C133.242 358.37 133.037 358.574 133.037 358.827C133.037 359.079 133.242 359.284 133.494 359.284Z" fill="#6CB4AD"/>
<path d="M149.372 315.438C150.015 316.209 149.91 317.357 149.138 318C148.367 318.643 147.219 318.538 146.576 317.767C145.933 316.995 146.038 315.847 146.81 315.204C147.581 314.562 148.729 314.666 149.372 315.438Z" fill="#6CB4AD"/>
<path d="M136.657 176.326C137.828 177.736 137.638 179.822 136.228 180.994C134.818 182.165 132.728 181.975 131.561 180.565C130.389 179.155 130.58 177.065 131.99 175.898C133.399 174.726 135.485 174.917 136.657 176.326Z" fill="#6CB4AD"/>
<path d="M202.81 141.438C203.314 142.043 203.233 142.943 202.624 143.448C202.019 143.953 201.119 143.867 200.614 143.262C200.109 142.657 200.195 141.757 200.8 141.252C201.405 140.748 202.305 140.833 202.81 141.438Z" fill="#6CB4AD"/>
<path d="M236.288 83.7998C236.503 84.0569 236.469 84.4427 236.207 84.6617C235.945 84.8808 235.564 84.8427 235.345 84.5808C235.126 84.3189 235.164 83.9379 235.426 83.7188C235.683 83.5045 236.069 83.5378 236.288 83.7998Z" fill="#6CB4AD"/>
<path d="M226.997 99.8629C227.15 100.044 227.121 100.311 226.94 100.463C226.759 100.615 226.492 100.587 226.34 100.406C226.188 100.225 226.216 99.9582 226.397 99.8058C226.578 99.6534 226.845 99.6819 226.997 99.8629Z" fill="#6CB4AD"/>
<path d="M222.787 129.942C223.321 130.585 223.235 131.532 222.592 132.066C221.949 132.599 221.001 132.513 220.468 131.87C219.935 131.227 220.02 130.28 220.663 129.746C221.306 129.213 222.254 129.299 222.787 129.942Z" fill="#6CB4AD"/>
<path d="M195.871 123.803C196.366 124.398 196.285 125.284 195.69 125.779C195.095 126.275 194.209 126.194 193.714 125.598C193.218 125.003 193.299 124.117 193.894 123.622C194.49 123.127 195.376 123.208 195.871 123.803Z" fill="#6CB4AD"/>
<path d="M228.788 169.488C229.035 169.783 228.993 170.221 228.697 170.469C228.402 170.716 227.964 170.674 227.716 170.378C227.469 170.083 227.512 169.645 227.807 169.397C228.102 169.15 228.54 169.192 228.788 169.488Z" fill="#6CB4AD"/>
<path d="M186.313 181.217C186.418 181.341 186.399 181.527 186.275 181.632C186.151 181.736 185.965 181.717 185.86 181.594C185.756 181.47 185.775 181.284 185.899 181.179C186.022 181.074 186.208 181.093 186.313 181.217Z" fill="#6CB4AD"/>
<path d="M196.752 198.157C196.92 198.157 197.057 198.02 197.057 197.852C197.057 197.684 196.92 197.547 196.752 197.547C196.583 197.547 196.447 197.684 196.447 197.852C196.447 198.02 196.583 198.157 196.752 198.157Z" fill="#6CB4AD"/>
<path d="M157.968 217.215C158.349 217.677 158.287 218.358 157.83 218.739C157.368 219.12 156.687 219.058 156.306 218.601C155.925 218.139 155.987 217.458 156.444 217.077C156.906 216.696 157.587 216.758 157.968 217.215Z" fill="#6CB4AD"/>
<path d="M180.898 240.603C181.461 240.603 181.917 240.147 181.917 239.584C181.917 239.021 181.461 238.565 180.898 238.565C180.335 238.565 179.879 239.021 179.879 239.584C179.879 240.147 180.335 240.603 180.898 240.603Z" fill="#6CB4AD"/>
<path d="M131.18 255.228C131.294 255.361 131.275 255.566 131.137 255.676C130.999 255.785 130.799 255.771 130.689 255.633C130.58 255.495 130.594 255.295 130.732 255.185C130.87 255.076 131.07 255.09 131.18 255.228Z" fill="#6CB4AD"/>
<path d="M152.301 293.517C152.577 293.85 152.534 294.345 152.201 294.622C151.867 294.898 151.372 294.855 151.096 294.522C150.82 294.188 150.862 293.693 151.196 293.417C151.529 293.14 152.024 293.183 152.301 293.517Z" fill="#6CB4AD"/>
<path d="M140.014 308.261C140.271 308.571 140.228 309.028 139.919 309.285C139.609 309.542 139.152 309.499 138.895 309.19C138.638 308.88 138.681 308.423 138.99 308.166C139.3 307.909 139.757 307.951 140.014 308.261Z" fill="#6CB4AD"/>
<path d="M121.241 321.329C121.76 321.952 121.674 322.881 121.05 323.405C120.426 323.929 119.498 323.838 118.974 323.214C118.455 322.591 118.541 321.662 119.164 321.138C119.788 320.619 120.717 320.705 121.241 321.329Z" fill="#6CB4AD"/>
<path d="M116.764 351.722C117.255 352.312 117.174 353.188 116.583 353.684C115.993 354.174 115.116 354.093 114.621 353.503C114.131 352.912 114.212 352.036 114.802 351.541C115.393 351.05 116.269 351.131 116.764 351.722Z" fill="#6CB4AD"/>
<path d="M129.818 360.794C130.189 361.151 130.199 361.742 129.841 362.108C129.484 362.48 128.894 362.489 128.527 362.132C128.156 361.775 128.146 361.184 128.503 360.818C128.86 360.446 129.451 360.437 129.818 360.794Z" fill="#6CB4AD"/>
<path d="M159.682 354.369C160.145 354.369 160.52 353.994 160.52 353.531C160.52 353.068 160.145 352.693 159.682 352.693C159.219 352.693 158.844 353.068 158.844 353.531C158.844 353.994 159.219 354.369 159.682 354.369Z" fill="#6CB4AD"/>
<path d="M163.815 323.943C164.311 324.424 164.325 325.22 163.844 325.715C163.363 326.21 162.568 326.224 162.072 325.743C161.577 325.262 161.563 324.467 162.044 323.972C162.525 323.477 163.32 323.462 163.815 323.943Z" fill="#6CB4AD"/>
<path d="M168.287 295.679C168.898 295.679 169.392 295.184 169.392 294.574C169.392 293.964 168.898 293.469 168.287 293.469C167.677 293.469 167.183 293.964 167.183 294.574C167.183 295.184 167.677 295.679 168.287 295.679Z" fill="#6CB4AD"/>
<path d="M222.606 311.356C222.816 311.556 222.82 311.89 222.62 312.095C222.42 312.299 222.087 312.309 221.882 312.109C221.677 311.909 221.668 311.576 221.868 311.371C222.068 311.166 222.401 311.156 222.606 311.356Z" fill="#6CB4AD"/>
<path d="M203.471 283.183C203.571 283.278 203.576 283.44 203.476 283.54C203.376 283.64 203.219 283.645 203.119 283.545C203.019 283.445 203.014 283.288 203.114 283.188C203.214 283.088 203.371 283.083 203.471 283.183Z" fill="#6CB4AD"/>
<path d="M206.1 278.692C206.753 278.692 207.281 278.163 207.281 277.511C207.281 276.859 206.753 276.33 206.1 276.33C205.448 276.33 204.919 276.859 204.919 277.511C204.919 278.163 205.448 278.692 206.1 278.692Z" fill="#6CB4AD"/>
<path d="M235.598 300.603C235.907 300.903 235.917 301.399 235.617 301.713C235.317 302.027 234.821 302.032 234.507 301.732C234.197 301.432 234.188 300.937 234.488 300.622C234.788 300.308 235.283 300.303 235.598 300.603Z" fill="#6CB4AD"/>
<path d="M200.219 253.023C200.657 253.447 200.666 254.142 200.243 254.576C199.819 255.009 199.123 255.023 198.69 254.599C198.252 254.176 198.242 253.48 198.666 253.047C199.09 252.609 199.785 252.599 200.219 253.023Z" fill="#6CB4AD"/>
</g>
</g>
<path d="M225.973 53.1107H145.991L115.036 84.0609L137.447 61.6495H217.435L248.385 92.5997V346.478L256.923 337.939V84.0609L225.973 53.1107Z" fill="#08665C"/>
<path d="M227.673 187.405C227.673 164.38 209.007 145.714 185.982 145.714C162.956 145.714 144.29 164.38 144.29 187.405C144.29 210.431 162.956 229.097 185.982 229.097C209.007 229.097 227.673 210.431 227.673 187.405Z" stroke="#B9D257" stroke-width="2.14303" stroke-miterlimit="10"/>
<path d="M198.937 179.35V169.92C198.914 162.805 193.104 156.991 185.974 156.967C178.86 156.991 173.045 162.805 173.021 169.925V179.35H163.596V211.152H208.357V179.35H198.933H198.937ZM175.378 169.93C175.397 164.106 180.16 159.343 185.974 159.324C191.803 159.343 196.561 164.106 196.58 169.925V179.35H175.378V169.93ZM206.005 208.8H165.954V181.707H206.005V208.8Z" fill="#B9D257"/>
<path d="M184.803 198.08V204.09H187.16V198.08C189.846 197.532 191.87 195.151 191.87 192.308C191.87 189.06 189.227 186.417 185.979 186.417C182.731 186.417 180.088 189.06 180.088 192.308C180.088 195.151 182.117 197.532 184.798 198.08H184.803ZM185.979 188.774C187.927 188.774 189.513 190.36 189.513 192.308C189.513 194.255 187.927 195.841 185.979 195.841C184.031 195.841 182.445 194.255 182.445 192.308C182.445 190.36 184.031 188.774 185.979 188.774Z" fill="#B9D257"/>
<path d="M223.792 210.966L233.054 211.366L245.527 190.546L226.954 156.967L214.291 206.19L213.181 205.885L210.062 233.616C209.834 235.511 209.172 237.345 208.133 238.964L206.743 241.126C206.2 241.969 206.176 243.031 206.676 243.874L213.805 255.813C214.52 257.013 216.077 257.399 217.315 256.684C218.52 255.989 219.001 254.484 218.406 253.255L213.305 242.669C213.005 242.05 212.972 241.331 213.205 240.669L223.792 210.957V210.966Z" fill="#08665C"/>
<path d="M232.959 176.587L233.321 223.51L230.14 235.64L252.923 269.1L300.074 255.451L307.042 243.293L303.022 220.501L232.959 176.587Z" fill="#06534B"/>
<path d="M276.006 124.783C275.839 131.465 279.839 136.884 284.94 136.884C290.04 136.884 294.317 131.465 294.483 124.783C294.65 118.102 290.65 112.682 285.549 112.682C280.449 112.682 276.172 118.102 276.006 124.783Z" fill="#06534B"/>
<path d="M270.215 142.651C255.409 142.651 243.712 130.65 244.084 115.844C244.084 115.83 244.084 115.811 244.084 115.797C244.136 113.801 241.86 112.73 240.322 114.039C240.141 114.197 239.96 114.354 239.779 114.511C238.502 117.544 237.726 120.835 237.64 124.297C237.269 139.103 248.97 151.104 263.771 151.104C271.11 151.104 277.825 148.142 282.777 143.361C283.32 141.904 283.739 140.389 284.035 138.832C279.958 141.246 275.243 142.656 270.219 142.656L270.215 142.651Z" fill="#6CB4AD"/>
<path d="M270.214 142.651C275.239 142.651 279.958 141.242 284.03 138.827C284.297 137.408 284.482 135.96 284.52 134.474C284.897 119.535 273.091 107.429 258.156 107.429C253.289 107.429 248.698 108.734 244.693 110.987C244.36 112.568 244.127 114.182 244.084 115.844C243.712 130.65 255.413 142.651 270.214 142.651Z" fill="#06534B"/>
<mask id="mask2_14261_606" style="mask-type:luminance" maskUnits="userSpaceOnUse" x="238" y="96" width="54" height="49">
<path d="M256.59 108.539C272.172 108.539 284.621 119.502 284.23 135.084C284.192 136.632 283.997 138.141 283.716 139.622C283.411 141.246 282.973 142.827 282.406 144.347C284.802 142.032 286.806 139.313 288.292 136.298C290.816 131.188 291.912 125.269 290.85 119.016C288.945 107.796 280.073 98.838 268.853 96.9188C259.742 95.3616 251.199 98.2904 244.993 103.815C242.269 106.243 240.374 108.386 238.831 111.439C238.345 112.401 238.564 113.563 239.393 114.215L242.155 116.392L256.58 108.544L256.59 108.539Z" fill="white"/>
</mask>
<g mask="url(#mask2_14261_606)">
<path d="M265.467 96.4995C265.467 96.4995 282.278 96.79 282.659 116.42C282.949 131.307 305.275 128.935 308.604 114.101C311.932 99.2664 307.57 78.8123 287.021 76.7169C266.472 74.6215 265.462 96.4947 265.462 96.4947L265.467 96.4995Z" fill="#3B9B91"/>
</g>
<path d="M240.884 112.906C237.674 118.873 236.984 125.459 238.446 131.488" stroke="#DFF4F3" stroke-width="1.42869" stroke-miterlimit="10"/>
<path d="M256.59 108.539C272.172 108.539 284.621 119.502 284.23 135.084C284.192 136.632 283.997 138.141 283.716 139.622C283.411 141.246 282.973 142.827 282.406 144.347C284.802 142.032 286.806 139.313 288.292 136.298C290.816 131.188 291.912 125.269 290.85 119.016C288.945 107.796 280.073 98.838 268.853 96.9188C259.742 95.3616 251.199 98.2904 244.993 103.815C242.269 106.243 240.374 108.386 238.831 111.439C238.345 112.401 238.564 113.563 239.393 114.215L244.389 118.683L256.58 108.539H256.59Z" fill="#06534B"/>
<path d="M241.755 124.783C241.588 131.464 245.589 136.884 250.689 136.884C255.79 136.884 260.066 131.464 260.233 124.783C260.399 118.101 256.399 112.682 251.299 112.682C246.198 112.682 241.922 118.101 241.755 124.783Z" fill="#08665C"/>
<path d="M256.384 125.074C256.649 118.391 253.587 112.843 249.545 112.683C245.503 112.523 242.011 117.811 241.747 124.494C241.482 131.177 244.544 136.725 248.586 136.885C252.627 137.045 256.119 131.757 256.384 125.074Z" fill="#0A8276"/>
<path d="M253.319 124.962C253.49 120.496 251.51 116.796 248.898 116.696C246.286 116.596 244.029 120.135 243.859 124.6C243.688 129.065 245.667 132.766 248.28 132.866C250.892 132.966 253.148 129.427 253.319 124.962Z" stroke="#6CB4AD" stroke-width="1.42869" stroke-miterlimit="10"/>
<path d="M287.092 130.127H249.965C242.888 130.127 237.15 135.864 237.15 142.942V148.338C237.15 155.415 242.888 161.153 249.965 161.153H287.092C294.17 161.153 299.908 155.415 299.908 148.338V142.942C299.908 135.864 294.17 130.127 287.092 130.127Z" fill="#06534B"/>
<path d="M217.001 210.509L236.874 211.367L249.346 190.546L256.071 140.585L243.665 142.032C238.003 142.694 233.293 146.866 231.94 152.424L216.996 210.509H217.001Z" fill="#06534B"/>
<mask id="mask3_14261_606" style="mask-type:luminance" maskUnits="userSpaceOnUse" x="216" y="140" width="41" height="72">
<path d="M217.001 210.509L236.874 211.367L249.346 190.546L256.071 140.585L243.665 142.032C238.003 142.694 233.293 146.866 231.94 152.424L216.996 210.509H217.001Z" fill="white"/>
</mask>
<g mask="url(#mask3_14261_606)">
<path d="M248.713 133.318L238.779 145.785C237.155 147.824 236.188 150.309 236.002 152.91L235.302 162.753L231.126 171.764L230.359 186.008L223.854 194.132L220.139 206.752L194.385 199.152L219.292 157.615L242.736 126.727L248.708 133.318H248.713Z" fill="#0A8276"/>
</g>
<path d="M263.033 236.511L275.082 303.76C275.244 305.884 275.877 307.941 276.93 309.736L277.739 311.117C278.611 312.613 279.201 314.289 279.463 316.037L288.235 373.808L306.394 362.75L306.537 319.728C306.556 314.322 305.613 308.951 303.77 303.922L300.698 295.54C299.879 293.306 299.636 290.868 299.993 288.506L302.508 243.664L263.043 236.502L263.033 236.511Z" fill="#06534B"/>
<path d="M295.069 357.883L287.154 366.774C286.145 367.908 284.978 368.779 283.716 369.346C279.358 371.299 276.492 376.723 276.587 382.828L276.634 385.995H313.78C315.28 378.671 314.418 370.794 311.404 364.208L307.794 356.331L295.065 357.883H295.069Z" fill="#06534B"/>
<mask id="mask4_14261_606" style="mask-type:luminance" maskUnits="userSpaceOnUse" x="263" y="236" width="44" height="138">
<path d="M263.033 236.511L275.082 303.76C275.244 305.884 275.877 307.941 276.93 309.736L277.739 311.117C278.611 312.613 279.201 314.289 279.463 316.037L288.235 373.808L306.394 362.75L306.537 319.728C306.556 314.322 305.613 308.951 303.77 303.922L300.698 295.54C299.879 293.306 299.636 290.868 299.993 288.506L302.508 243.664L263.043 236.502L263.033 236.511Z" fill="white"/>
</mask>
<g mask="url(#mask4_14261_606)">
<path d="M272.153 292.545L281.025 301.031L280.634 329.543L272.153 292.545Z" fill="#06534B"/>
<path d="M282.349 313.06V299.521L275.12 269.1L280.573 260.828L260.862 267.428L268.176 344.558L291.888 348.34L282.349 313.06Z" fill="#0A8276"/>
</g>
<path d="M307.751 341.801L283.84 344.706C282.516 344.868 281.339 343.93 281.211 342.606L280.273 332.886C280.144 331.567 281.116 330.367 282.44 330.205L306.351 327.3C307.675 327.138 308.851 328.076 308.98 329.4L309.918 339.12C310.047 340.439 309.075 341.639 307.751 341.801Z" fill="#06534B"/>
<path d="M309.151 356.302L285.24 359.207C283.916 359.369 282.74 358.431 282.611 357.107L281.673 347.387C281.544 346.068 282.516 344.868 283.84 344.706L307.751 341.801C309.075 341.639 310.251 342.577 310.38 343.901L311.318 353.621C311.447 354.94 310.475 356.14 309.151 356.302Z" fill="#06534B"/>
<path d="M310.551 370.799L286.64 373.704C285.316 373.866 284.14 372.928 284.011 371.604L283.073 361.884C282.944 360.565 283.916 359.365 285.24 359.203L309.151 356.298C310.475 356.136 311.651 357.074 311.78 358.398L312.718 368.118C312.847 369.437 311.875 370.637 310.551 370.799Z" fill="#06534B"/>
<path d="M230.14 235.64L233.593 303.16C233.455 305.289 233.793 307.375 234.584 309.227L235.193 310.656C235.85 312.194 236.198 313.904 236.212 315.666L236.765 373.79L256.39 363.822L262.614 320.928C263.395 315.537 263.219 310.127 262.1 305.003L260.229 296.469C259.729 294.193 259.833 291.749 260.524 289.416L269.363 244.846L230.14 235.645V235.64Z" fill="#06534B"/>
<path d="M237.974 357.884L227.483 366.775C226.145 367.908 224.635 368.78 223.035 369.346C217.506 371.299 213.52 376.723 213.13 382.828L212.925 385.995H258.676C261.133 378.671 260.729 370.794 257.562 364.208L253.776 356.331L237.97 357.884H237.974Z" fill="#06534B"/>
<mask id="mask5_14261_606" style="mask-type:luminance" maskUnits="userSpaceOnUse" x="230" y="176" width="78" height="198">
<path d="M265.253 265.533L300.07 255.456L307.037 243.298L303.018 220.505L232.959 176.587L233.321 223.515L230.14 235.645L233.593 303.164C233.455 305.293 233.793 307.379 234.583 309.232L235.193 310.66C235.85 312.198 236.198 313.908 236.212 315.67L236.765 373.794L256.39 363.826L262.614 320.933C263.395 315.542 263.219 310.132 262.1 305.007L260.228 296.473C259.728 294.197 259.833 291.754 260.524 289.42L265.262 265.542L265.253 265.533Z" fill="white"/>
</mask>
<g mask="url(#mask5_14261_606)">
<path d="M236.536 224.015L233.34 242.912L239.498 267.119L238.717 279.577L242.475 301.083L240.065 315.151L242.003 349.006L220.33 272L228.321 219.286L236.536 224.015Z" fill="#0A8276"/>
</g>
<path d="M259.124 344.687L235.212 343.006C233.888 342.911 232.917 341.763 233.045 340.434L233.974 330.667C234.103 329.343 235.274 328.343 236.598 328.433L260.509 330.114C261.833 330.209 262.805 331.357 262.676 332.686L261.748 342.453C261.619 343.777 260.448 344.777 259.124 344.687Z" fill="#06534B"/>
<path d="M257.733 359.255L233.822 357.574C232.498 357.478 231.526 356.331 231.655 355.002L232.583 345.234C232.712 343.911 233.884 342.91 235.207 343.001L259.119 344.682C260.443 344.777 261.414 345.925 261.286 347.254L260.357 357.021C260.229 358.345 259.057 359.345 257.733 359.255Z" fill="#06534B"/>
<path d="M256.347 373.827L232.436 372.146C231.112 372.051 230.14 370.903 230.269 369.575L231.197 359.807C231.326 358.483 232.498 357.483 233.821 357.574L257.733 359.255C259.057 359.35 260.028 360.498 259.9 361.826L258.971 371.594C258.842 372.918 257.671 373.918 256.347 373.827Z" fill="#06534B"/>
<mask id="mask6_14261_606" style="mask-type:luminance" maskUnits="userSpaceOnUse" x="230" y="176" width="78" height="198">
<path d="M300.693 295.549C299.874 293.316 299.631 290.878 299.989 288.516L302.032 252.027L307.042 243.288L303.022 220.496L232.964 176.578L233.326 223.506L230.145 235.635L252.928 269.095L268.095 264.704L275.091 303.755C275.253 305.879 275.887 307.936 276.939 309.732L277.749 311.113C278.62 312.608 279.211 314.284 279.473 316.032L288.245 373.804L306.403 362.745L306.546 319.723C306.565 314.318 305.622 308.946 303.779 303.917L300.708 295.535L300.693 295.549Z" fill="white"/>
</mask>
<g mask="url(#mask6_14261_606)">
<path d="M313.871 221.067L261.057 220.81C260.895 220.791 260.728 220.777 260.557 220.777L250.856 220.729C248.394 220.715 246.365 222.724 246.356 225.186L246.303 236.116C246.265 243.917 252.613 250.327 260.414 250.365C260.581 250.365 260.747 250.355 260.914 250.336L303.894 250.546C311.837 250.584 318.304 244.178 318.347 236.235L318.4 225.634C318.414 223.124 316.385 221.081 313.875 221.067H313.871Z" fill="#06534B"/>
</g>
<path d="M237.155 143.451C237.341 136.122 243.484 130.126 250.813 130.126" stroke="#3B9B91" stroke-width="1.42869" stroke-miterlimit="10"/>
<path d="M268.853 96.9188C259.743 95.3616 251.199 98.2904 244.994 103.815C242.27 106.243 240.374 108.386 238.831 111.439" stroke="#3B9B91" stroke-width="1.42869" stroke-miterlimit="10"/>
<path d="M260.876 287.606L265.814 265.542L280.573 260.827" stroke="#0A8276" stroke-width="1.42869" stroke-miterlimit="10"/>
<path d="M285.492 119.016C284.04 110.463 277.277 103.634 268.724 102.167" stroke="#6CB4AD" stroke-width="1.42869" stroke-miterlimit="10"/>
<path d="M304.803 247.203L298.879 255.799" stroke="#0A8276" stroke-width="1.42869" stroke-miterlimit="10"/>
<path d="M233.321 223.51L230.14 235.64L233.155 294.587" stroke="#3B9B91" stroke-width="1.42869" stroke-miterlimit="10"/>
<path d="M241.365 251.37L248.77 264.247" stroke="#0A8276" stroke-width="1.42869" stroke-miterlimit="10"/>
<path d="M243.665 142.032C238.003 142.694 233.293 146.866 231.94 152.424L221.511 192.97" stroke="#3B9B91" stroke-width="1.42869" stroke-miterlimit="10"/>
<path d="M242.765 195.779L238.398 202.527" stroke="#0A8276" stroke-width="1.42869" stroke-miterlimit="10"/>
<path d="M233.545 214.533L233.34 222.777L242.003 226.134" stroke="#3B9B91" stroke-width="1.42869" stroke-miterlimit="10"/>
<path d="M233.04 340.439L233.969 330.671C234.098 329.347 235.269 328.347 236.593 328.438H247.527" stroke="#3B9B91" stroke-width="1.42869" stroke-miterlimit="10"/>
<path d="M231.655 355.006L232.583 345.239C232.712 343.915 233.883 342.915 235.207 343.005H243.189" stroke="#3B9B91" stroke-width="1.42869" stroke-miterlimit="10"/>
<path d="M239.703 357.578H233.821C232.497 357.483 231.321 358.483 231.197 359.812L230.792 364.074L224.359 368.894" stroke="#3B9B91" stroke-width="1.42869" stroke-miterlimit="10"/>
<path d="M281.211 342.61L280.273 332.89C280.144 331.571 281.116 330.371 282.44 330.209L290.35 329.247" stroke="#3B9B91" stroke-width="1.42869" stroke-miterlimit="10"/>
<path d="M282.616 357.107L281.678 347.387C281.549 346.068 282.521 344.868 283.844 344.706L288.373 344.153" stroke="#3B9B91" stroke-width="1.42869" stroke-miterlimit="10"/>
<path d="M288.831 358.769L285.245 359.202C283.921 359.364 282.949 360.564 283.078 361.883L283.93 370.713C284.13 372.775 284.111 374.851 283.883 376.908" stroke="#3B9B91" stroke-width="1.42869" stroke-miterlimit="10"/>
<path d="M255.638 134.623H294.598C300.06 134.623 304.494 139.056 304.494 144.519V231.049H245.742V144.519C245.742 139.056 250.175 134.623 255.638 134.623Z" fill="#06534B"/>
<path d="M271.787 150.786H302.708C307.042 150.786 310.561 154.305 310.561 158.639V227.311H263.934V158.639C263.934 154.305 267.453 150.786 271.787 150.786Z" fill="#06534B"/>
<path d="M256.104 168.749H245.742V225.563H256.104V168.749Z" fill="#06534B"/>
<path d="M309.342 182.465H253.052C250.543 182.465 248.509 184.499 248.509 187.008V207.452C248.509 209.962 250.543 211.996 253.052 211.996H309.342C311.851 211.996 313.886 209.962 313.886 207.452V187.008C313.886 184.499 311.851 182.465 309.342 182.465Z" fill="#0A8276"/>
<path d="M253.052 216.096H309.338C311.847 216.096 313.881 218.134 313.881 220.639V231.24C313.881 239.179 307.437 245.622 299.499 245.622H256.1C251.909 245.622 248.509 242.222 248.509 238.031V220.639C248.509 218.13 250.547 216.096 253.052 216.096Z" fill="#0A8276"/>
<path d="M256.1 141.542H299.499C307.437 141.542 313.881 147.986 313.881 155.925V173.874C313.881 176.383 311.843 178.417 309.338 178.417H253.052C250.542 178.417 248.509 176.379 248.509 173.874V149.138C248.509 144.948 251.909 141.547 256.1 141.547V141.542Z" fill="#0A8276"/>
<mask id="mask7_14261_606" style="mask-type:luminance" maskUnits="userSpaceOnUse" x="248" y="141" width="66" height="38">
<path d="M256.1 141.542H299.499C307.437 141.542 313.881 147.986 313.881 155.925V173.874C313.881 176.383 311.843 178.417 309.338 178.417H253.052C250.542 178.417 248.509 176.379 248.509 173.874V149.138C248.509 144.948 251.909 141.547 256.1 141.547V141.542Z" fill="white"/>
</mask>
<g mask="url(#mask7_14261_606)">
<path d="M314.91 135.828H245.742V149.762H314.91V135.828Z" fill="#3B9B91"/>
</g>
<path d="M256.023 141.514C258.495 141.514 260.505 143.523 260.505 145.995V173.969C260.505 176.44 258.495 178.45 256.023 178.45H246.323C243.851 178.45 241.841 176.44 241.841 173.969V155.696C241.841 147.871 248.194 141.518 256.019 141.518L256.023 141.514Z" fill="#6CB4AD"/>
<path d="M255.962 182.465H246.39C243.88 182.465 241.846 184.499 241.846 187.008V207.51C241.846 210.019 243.88 212.053 246.39 212.053H255.962C258.471 212.053 260.505 210.019 260.505 207.51V187.008C260.505 184.499 258.471 182.465 255.962 182.465Z" fill="#6CB4AD"/>
<mask id="mask8_14261_606" style="mask-type:luminance" maskUnits="userSpaceOnUse" x="248" y="216" width="66" height="30">
<path d="M253.052 216.096H309.338C311.847 216.096 313.881 218.134 313.881 220.639V231.24C313.881 239.179 307.437 245.622 299.499 245.622H256.1C251.909 245.622 248.509 242.222 248.509 238.031V220.639C248.509 218.13 250.547 216.096 253.052 216.096Z" fill="white"/>
</mask>
<g mask="url(#mask8_14261_606)">
<path d="M314.91 237.407H245.742V251.342H314.91V237.407Z" fill="#08665C"/>
</g>
<path d="M246.328 216.068H256.028C258.5 216.068 260.51 218.077 260.51 220.549V241.179C260.51 243.651 258.5 245.66 256.028 245.66C248.204 245.66 241.851 239.307 241.851 231.483V220.554C241.851 218.082 243.861 216.072 246.332 216.072L246.328 216.068Z" fill="#6CB4AD"/>
<path d="M268.897 190.137H267.158C266.809 190.137 266.525 190.421 266.525 190.771V200.786C266.525 201.135 266.809 201.419 267.158 201.419H268.897C269.246 201.419 269.53 201.135 269.53 200.786V190.771C269.53 190.421 269.246 190.137 268.897 190.137Z" fill="#B9D257"/>
<path d="M273.478 200.252H271.74C271.39 200.252 271.106 200.536 271.106 200.886V204.172C271.106 204.521 271.39 204.805 271.74 204.805H273.478C273.828 204.805 274.111 204.521 274.111 204.172V200.886C274.111 200.536 273.828 200.252 273.478 200.252Z" fill="#B9D257"/>
<path d="M273.478 160.316H271.74C271.39 160.316 271.106 160.599 271.106 160.949V164.235C271.106 164.585 271.39 164.868 271.74 164.868H273.478C273.828 164.868 274.111 164.585 274.111 164.235V160.949C274.111 160.599 273.828 160.316 273.478 160.316Z" fill="#B9D257"/>
<path d="M301.032 220.501H299.294C298.944 220.501 298.661 220.785 298.661 221.135V224.421C298.661 224.771 298.944 225.054 299.294 225.054H301.032C301.382 225.054 301.666 224.771 301.666 224.421V221.135C301.666 220.785 301.382 220.501 301.032 220.501Z" fill="#0A8276"/>
<path d="M295.484 222.145H293.746C293.396 222.145 293.113 222.428 293.113 222.778V232.793C293.113 233.143 293.396 233.426 293.746 233.426H295.484C295.834 233.426 296.118 233.143 296.118 232.793V222.778C296.118 222.428 295.834 222.145 295.484 222.145Z" fill="#B9D257"/>
<path d="M303.747 168.454V166.631C303.747 166.281 303.464 165.997 303.114 165.997H297.904C297.554 165.997 297.27 166.281 297.27 166.631V168.454C297.27 168.804 297.554 169.088 297.904 169.088H303.114C303.464 169.088 303.747 168.804 303.747 168.454Z" fill="#B9D257"/>
<path d="M285.802 174.46V172.636C285.802 172.286 285.519 172.002 285.169 172.002H270.239C269.89 172.002 269.606 172.286 269.606 172.636V174.46C269.606 174.809 269.89 175.093 270.239 175.093H285.169C285.519 175.093 285.802 174.809 285.802 174.46Z" fill="#0A8276"/>
<path d="M290.031 153.439H280.95C280.6 153.439 280.316 153.723 280.316 154.072V168.454C280.316 168.804 280.6 169.088 280.95 169.088H290.031C290.381 169.088 290.665 168.804 290.665 168.454V154.072C290.665 153.723 290.381 153.439 290.031 153.439Z" fill="#08665C"/>
<path d="M299.528 158.177H295.013C294.663 158.177 294.38 158.461 294.38 158.811V163.492C294.38 163.842 294.663 164.126 295.013 164.126H299.528C299.877 164.126 300.161 163.842 300.161 163.492V158.811C300.161 158.461 299.877 158.177 299.528 158.177Z" fill="#08665C"/>
<path d="M281.717 222.778H274.287C273.938 222.778 273.654 223.062 273.654 223.411V231.093C273.654 231.443 273.938 231.726 274.287 231.726H281.717C282.066 231.726 282.35 231.443 282.35 231.093V223.411C282.35 223.062 282.066 222.778 281.717 222.778Z" fill="#08665C"/>
<path d="M304.695 189.051H279.083C278.733 189.051 278.45 189.335 278.45 189.685V204.829C278.45 205.179 278.733 205.462 279.083 205.462H304.695C305.045 205.462 305.328 205.179 305.328 204.829V189.685C305.328 189.335 305.045 189.051 304.695 189.051Z" fill="#08665C"/>
<path d="M241.846 173.969V155.696C241.846 147.895 248.228 141.518 256.024 141.518" stroke="#B8DEDA" stroke-width="1.42869" stroke-miterlimit="10"/>
<path d="M241.846 207.509V187.008C241.846 184.508 243.889 182.464 246.39 182.464" stroke="#B8DEDA" stroke-width="1.42869" stroke-miterlimit="10"/>
<path d="M241.846 231.478V220.549C241.846 218.086 243.861 216.067 246.328 216.067" stroke="#B8DEDA" stroke-width="1.42869" stroke-miterlimit="10"/>
<path d="M217.125 242.674C216.825 242.055 216.791 241.336 217.025 240.674L228.321 208.976L217.001 205.89L213.882 233.621C213.653 235.516 212.991 237.35 211.953 238.969L210.562 241.131C210.019 241.974 209.996 243.036 210.496 243.879L217.625 255.818C218.339 257.018 219.896 257.404 221.135 256.689C222.34 255.994 222.821 254.489 222.225 253.26L217.125 242.674Z" fill="#0A8276"/>
<path d="M236.874 211.366L228.321 208.98L217.025 240.678C216.791 241.335 216.825 242.054 217.125 242.678L220.777 250.26L221.106 242.497C221.125 242.064 221.249 241.64 221.473 241.264L236.874 211.371V211.366Z" fill="#06534B"/>
<path d="M216.51 210.209L213.815 234.039L221.092 214.614L216.51 210.209Z" fill="#3B9B91"/>
<path d="M217.001 205.89L231.055 209.743" stroke="#3B9B91" stroke-width="1.42869" stroke-miterlimit="10"/>
<path d="M86 386H335.597" stroke="#B8DEDA" stroke-width="2.02874" stroke-miterlimit="10"/>
</svg>
