<svg width="422" height="422" viewBox="0 0 422 422" fill="none" xmlns="http://www.w3.org/2000/svg">
<path d="M138.248 99.0109C138.901 100.408 138.946 102.176 138.188 103.549C137.837 104.243 137.36 104.843 136.95 105.399C136.75 105.672 136.561 105.96 136.512 106.152C136.49 106.246 136.499 106.274 136.516 106.308C136.533 106.345 136.589 106.418 136.688 106.491C137.158 106.856 137.941 107.035 138.501 107.295C140.891 108.281 144.146 110.329 143.345 113.378C142.513 116.03 139.763 117.416 137.564 118.752C136.408 119.481 135.31 120.321 134.522 121.301C133.34 122.769 133.34 124.142 135.37 124.58C137.317 125.001 139.226 124.322 141.114 123.729C150.266 121.063 161.982 118.718 171.452 120.411C173.764 120.88 176.302 121.733 178.094 123.517C180.25 125.603 180.901 128.947 179.377 131.562C177.737 134.422 174.862 136.203 172.146 137.787C156.952 146.597 118.044 155.335 113.761 173.495C113.063 176.802 113.551 180.797 115.148 183.584C116.228 185.494 117.896 187.119 119.976 188.597C122.05 190.075 124.469 191.406 126.979 192.826C133.342 196.294 139.909 200.828 143.736 207.346C149.562 216.988 153.406 228.22 161.868 235.853C163.63 237.391 165.519 238.618 167.668 239.459C170.831 240.692 174.087 240.862 177.529 240.277L179.081 250.966C172.275 251.922 164.819 250.401 159.12 246.339C147.645 238.326 142.999 224.154 136.989 212.445C134.06 206.547 128.741 202.81 123.098 199.417C113.983 194.019 106.655 188.814 106.72 177.017C106.653 170.211 110.259 164.152 115.212 159.742C119.75 155.653 124.989 152.72 130.387 150.122C140.848 145.141 151.887 141.76 162.571 137.615C166 136.191 177.162 132.11 176.545 127.877C175.881 124.15 169.937 123.325 166.75 123.039C158.381 122.476 149.865 123.875 141.75 125.96C139.572 126.598 137.184 127.223 134.872 126.619C132.908 126.173 131.292 124.494 131.842 122.363C132.302 120.643 133.507 119.53 134.79 118.516C136.937 116.793 139.913 116.03 141.551 113.735C143.244 111.283 139.945 109.317 138.011 108.41C137.107 107.952 135.968 107.776 135.471 106.732C135.175 106.016 135.673 105.268 136.095 104.75C136.552 104.172 136.986 103.657 137.302 103.081C137.979 101.925 137.964 100.571 137.457 99.3418L138.25 99.0109H138.248Z" fill="#06534B"/>
<path d="M129.296 84.9035C128.761 84.7595 128.443 84.2073 128.587 83.6722L135.207 59.1794C135.289 58.8807 135.497 58.6401 135.783 58.5176L143.781 55.1073C143.992 55.0171 144.217 55.002 144.435 55.0601C144.97 55.204 145.288 55.7563 145.144 56.2914L138.523 80.7841C138.441 81.0828 138.233 81.3235 137.949 81.4438L129.949 84.8562C129.741 84.9465 129.513 84.9615 129.296 84.9035Z" fill="#0A8276"/>
<path d="M137.683 80.8206L129.683 84.233C129.433 84.3405 129.171 84.1106 129.242 83.8484L135.863 59.3556C135.888 59.2589 135.957 59.1816 136.05 59.1407L144.05 55.7283C144.299 55.6209 144.561 55.8508 144.49 56.113L137.87 80.6058C137.844 80.7025 137.775 80.7798 137.683 80.8206Z" fill="#08665C"/>
<path d="M137.683 80.8206L129.683 84.233C129.433 84.3405 129.171 84.1106 129.242 83.8484L135.863 59.3556C135.888 59.2589 135.957 59.1816 136.05 59.1407L144.05 55.7283C144.299 55.6209 144.561 55.8508 144.49 56.113L137.87 80.6058C137.844 80.7025 137.775 80.7798 137.683 80.8206Z" fill="#08665C"/>
<path d="M133.202 67.8135L142.808 63.7178" stroke="#0A8276" stroke-width="0.679041" stroke-miterlimit="10"/>
<path d="M130.925 76.2436L140.528 72.1478" stroke="#0A8276" stroke-width="0.679041" stroke-miterlimit="10"/>
<path d="M85.235 90.5207L74.2844 80.5994L79.0291 63.0453L93.4867 59.9939L85.235 90.5207Z" fill="#6CB4AD"/>
<path d="M115.705 67.9475L92.9927 61.8065L85.717 88.7153L108.429 94.8564L115.705 67.9475Z" fill="#6CB4AD"/>
<path d="M98.3893 60.2063L94.7363 59.2186C94.199 59.0733 93.6457 59.3911 93.5004 59.9284L85.209 90.594C85.0637 91.1313 85.3815 91.6846 85.9188 91.8299L89.5718 92.8176C90.1091 92.9629 90.6624 92.6451 90.8077 92.1078L99.0991 61.4422C99.2444 60.9049 98.9266 60.3516 98.3893 60.2063Z" fill="#08665C"/>
<path d="M74.6974 79.0756L73.8851 78.678C73.2942 78.3901 72.9912 77.7218 73.1631 77.0879L76.2918 65.5098C76.4637 64.8759 77.0611 64.4525 77.7165 64.4998L78.619 64.5664L74.6974 79.0734V79.0756Z" fill="#3B9B91"/>
<path d="M117.899 67.9072L115.862 67.3564L108.267 95.4477L110.304 95.9984L117.899 67.9072Z" fill="#08665C"/>
<path d="M118.915 75.6398L116.021 74.8574L112.184 89.0503L115.077 89.8327L118.915 75.6398Z" fill="#6CB4AD"/>
<path d="M119.798 94.629L115.915 92.8154C115.087 92.4286 114.729 91.1522 115.081 89.8435L118.927 75.6116C119.28 74.3051 120.234 73.3811 121.143 73.4649L125.411 73.8538L119.796 94.6269L119.798 94.629Z" fill="#0A8276"/>
<path d="M143.373 74.6105L128.9 70.6973C127.541 70.3299 126.142 71.1336 125.774 72.4923L119.416 96.0075C119.049 97.3662 119.852 98.7655 121.211 99.1329L135.684 103.046C137.043 103.413 138.442 102.61 138.81 101.251L145.168 77.7359C145.535 76.3772 144.731 74.9779 143.373 74.6105Z" fill="#6CB4AD"/>
<path d="M73.1608 77.0879L70.2534 73.2973C69.5142 72.3346 69.2671 71.0839 69.5851 69.9128C69.901 68.7417 70.7455 67.7854 71.8694 67.3256L76.2896 65.5162L73.1608 77.09V77.0879Z" fill="#6CB4AD"/>
<path d="M153.252 81.5059L144.769 79.2125L139.21 99.7737L147.692 102.067L153.252 81.5059Z" fill="#0A8276"/>
<path d="M155.972 82.6427L152.923 82.7501L148.042 100.803L150.623 102.434C151.521 103.001 152.714 102.537 152.991 101.512L157.553 84.6325C157.831 83.6054 157.035 82.604 155.974 82.6427H155.972Z" fill="#08665C"/>
<path d="M89.3609 75.2573L76.6568 71.8234L74.697 79.0758L74.2844 80.5993L85.235 90.5206L85.725 88.7113L89.3609 75.2573Z" fill="#3B9B91"/>
<path d="M94.9689 76.7794L91.3311 90.2338L108.443 94.8604L112.08 81.406L94.9689 76.7794Z" fill="#3B9B91"/>
<path d="M89.3611 75.2571L85.7252 88.7111L85.2353 90.5205L85.2159 90.5914C85.0698 91.1286 85.3878 91.6809 85.9251 91.827L89.5803 92.8155C90.1175 92.9616 90.6698 92.6436 90.8159 92.1063L91.323 90.2261L94.9589 76.772L89.359 75.2592L89.3611 75.2571Z" fill="#06534B"/>
<path d="M74.7253 71.301L73.1609 77.0879C72.989 77.724 73.292 78.3923 73.8829 78.6802L74.6952 79.0778L76.6549 71.8232L74.7231 71.301H74.7253Z" fill="#0A8276"/>
<path d="M108.439 94.8507L108.278 95.4416L110.315 95.9939L114.112 81.9467L112.075 81.3966L108.439 94.8507Z" fill="#06534B"/>
<path d="M114.119 81.9576L112.2 89.0541L115.094 89.8365L117.012 82.7401L114.119 81.9576Z" fill="#0A8276"/>
<path d="M117.004 82.7286L115.085 89.8263L115.081 89.8457C114.728 91.1522 115.085 92.4308 115.915 92.8176L119.798 94.6312L122.604 84.2436L117.004 82.7308V82.7286Z" fill="#08665C"/>
<path d="M122.604 84.2413L119.797 94.6289L119.426 95.9999C119.058 97.358 119.862 98.7569 121.22 99.1244L135.697 103.037C137.055 103.405 138.454 102.601 138.821 101.243L139.221 99.7669L142 89.4867L122.604 84.2435V84.2413Z" fill="#0A8276"/>
<path d="M70.2531 73.2971L73.1605 77.0877L74.7249 71.3008L69.5848 69.9105C69.2689 71.0817 69.516 72.3323 70.2531 73.295V73.2971Z" fill="#3B9B91"/>
<path d="M141.999 89.4845L139.221 99.7647L147.703 102.058L148.042 100.805L150.481 91.7773L141.999 89.4845Z" fill="#08665C"/>
<path d="M119.942 119.504C119.406 119.36 119.088 118.808 119.232 118.273L125.853 93.7803C125.935 93.4816 126.143 93.2409 126.429 93.1184L134.427 89.7082C134.638 89.6179 134.863 89.6029 135.08 89.6609C135.615 89.8049 135.933 90.3571 135.789 90.8922L129.169 115.385C129.087 115.684 128.879 115.924 128.595 116.045L120.595 119.457C120.386 119.547 120.159 119.562 119.942 119.504Z" fill="#08665C"/>
<path d="M128.331 115.424L120.33 118.836C120.081 118.943 119.819 118.713 119.89 118.451L126.511 93.9585C126.536 93.8618 126.605 93.7845 126.698 93.7436L134.698 90.3313C134.947 90.2238 135.209 90.4537 135.138 90.7159L128.518 115.209C128.492 115.305 128.423 115.383 128.331 115.424Z" fill="#08665C"/>
<path d="M128.331 115.424L120.33 118.836C120.081 118.943 119.819 118.713 119.89 118.451L126.511 93.9585C126.536 93.8618 126.605 93.7845 126.698 93.7436L134.698 90.3313C134.947 90.2238 135.209 90.4537 135.138 90.7159L128.518 115.209C128.492 115.305 128.423 115.383 128.331 115.424Z" fill="#06534B"/>
<path d="M133.317 98.0127L123.715 102.114L123.982 102.739L133.584 98.6372L133.317 98.0127Z" fill="#08665C"/>
<path d="M131.039 106.443L121.437 110.544L121.704 111.169L131.306 107.067L131.039 106.443Z" fill="#08665C"/>
<path d="M113.488 76.1526L96.3743 71.5254L96.197 72.1809L113.311 76.8081L113.488 76.1526Z" fill="#3B9B91"/>
<path d="M113.985 74.3061L96.8716 69.6788L96.751 70.1248L113.865 74.752L113.985 74.3061Z" fill="#3B9B91"/>
<path d="M110.271 88.0399L93.1572 83.4127L92.98 84.0682L110.094 88.6954L110.271 88.0399Z" fill="#0A8276"/>
<path d="M110.773 86.194L93.6592 81.5668L93.5386 82.0128L110.652 86.64L110.773 86.194Z" fill="#0A8276"/>
<path d="M152.991 101.512L155.273 93.0733L150.484 91.7797L148.045 100.807L150.625 102.438C151.524 103.005 152.716 102.541 152.993 101.516L152.991 101.512Z" fill="#06534B"/>
<path d="M375.205 65.688C383.556 65.688 390.755 60.7714 394.077 53.678L369.017 64.7532C370.972 65.3614 373.05 65.688 375.205 65.688Z" fill="#3B9B91"/>
<path d="M375.205 24.0261C364.366 24.0261 355.464 32.3057 354.471 42.8846L382.707 25.425C380.38 24.5247 377.85 24.0283 375.205 24.0283V24.0261Z" fill="#3B9B91"/>
<path d="M396.036 44.8572C396.036 41.4942 395.235 38.3204 393.819 35.5096L354.49 47.0469C355.014 52.0667 357.324 56.5535 360.771 59.867L395.604 49.0905C395.886 47.7238 396.036 46.3077 396.036 44.8572Z" fill="#3B9B91"/>
<path d="M382.707 25.425L354.471 42.8846C354.411 43.5335 354.376 44.1911 354.376 44.8572C354.376 45.5964 354.417 46.3271 354.492 47.0469L393.821 35.5097C391.509 30.9132 387.546 27.2946 382.709 25.425H382.707Z" fill="#6CB4AD"/>
<path d="M360.772 59.8671C363.077 62.0848 365.886 63.7802 369.017 64.7515L394.077 53.6763C394.754 52.2301 395.274 50.6936 395.605 49.0906L360.772 59.8671Z" fill="#6CB4AD"/>
<path d="M63.9941 397.208C81.009 397.208 94.8024 383.415 94.8024 366.4C94.8024 349.385 81.009 335.592 63.9941 335.592C46.9791 335.592 33.1858 349.385 33.1858 366.4C33.1858 383.415 46.9791 397.208 63.9941 397.208Z" fill="#6CB4AD"/>
<mask id="mask0_14261_850" style="mask-type:luminance" maskUnits="userSpaceOnUse" x="33" y="335" width="62" height="63">
<path d="M63.9941 397.208C81.009 397.208 94.8024 383.415 94.8024 366.4C94.8024 349.385 81.009 335.592 63.9941 335.592C46.9791 335.592 33.1858 349.385 33.1858 366.4C33.1858 383.415 46.9791 397.208 63.9941 397.208Z" fill="white"/>
</mask>
<g mask="url(#mask0_14261_850)">
<path d="M79.6767 336.274C79.6767 336.274 77.9017 343.148 74.1326 345.365C70.3635 347.583 67.1467 350.134 66.3709 357.562C65.5952 364.991 59.2754 375.525 45.9696 371.977C32.6638 368.429 17.6948 355.678 17.6948 355.678L37.3204 332.393L79.6767 336.274Z" fill="#3B9B91"/>
<path d="M95.7548 371.201C95.7548 371.201 85.3327 384.619 65.9285 382.732C46.5242 380.847 17.6951 367.875 17.6951 367.875V369.981C17.6951 369.981 43.9714 379.633 49.2662 382.648C53.2932 384.941 56.7249 388.609 38.9839 390.272C21.2428 391.935 37.7633 402.357 54.1742 402.691C70.5851 403.024 84.3335 404.466 90.2107 398.367C96.0878 392.269 95.7548 371.201 95.7548 371.201Z" fill="#3B9B91"/>
<path d="M78.3316 355.2C80.723 354.974 82.5274 353.368 82.3617 351.612C82.196 349.857 80.1231 348.616 77.7317 348.842C75.3402 349.067 73.5359 350.674 73.7016 352.429C73.8672 354.185 75.9402 355.426 78.3316 355.2Z" fill="#3B9B91"/>
<path d="M76.1109 348.069C76.9154 347.68 77.3135 346.839 77.0003 346.192C76.6871 345.544 75.781 345.335 74.9766 345.724C74.1721 346.114 73.7739 346.954 74.0872 347.601C74.4004 348.249 75.3065 348.458 76.1109 348.069Z" fill="#3B9B91"/>
</g>
<path d="M276.714 68.4302C278.816 68.4302 280.788 67.878 282.497 66.9131C278.972 64.1798 272.661 59.925 264.96 57.5118C265.407 63.6168 270.497 68.4302 276.714 68.4302Z" fill="#B9D257"/>
<path d="M288.267 59.0031C288.421 58.2403 288.503 57.4495 288.503 56.6415C288.503 50.1305 283.225 44.8507 276.712 44.8507C275.163 44.8507 273.684 45.1516 272.331 45.6952C277.338 47.9859 283.191 51.9935 288.265 59.0031H288.267Z" fill="#B9D257"/>
<path d="M288.267 59.0029C283.193 51.9933 277.338 47.9856 272.333 45.6949C267.992 47.4355 264.926 51.6774 264.926 56.6391C264.926 56.9335 264.941 57.2236 264.962 57.5116C272.664 59.9247 278.975 64.1795 282.499 66.9128C285.426 65.2625 287.579 62.3981 288.269 59.0029H288.267Z" fill="#9BBA43"/>
<path d="M119.389 321.397L122.097 322.527C122.331 322.626 122.331 322.959 122.097 323.056L119.389 324.186C117.915 324.803 116.742 325.974 116.125 327.45L114.995 330.158C114.896 330.392 114.563 330.392 114.466 330.158L113.336 327.45C112.719 325.976 111.548 324.803 110.072 324.186L107.364 323.056C107.13 322.957 107.13 322.624 107.364 322.527L110.072 321.397C111.546 320.78 112.719 319.609 113.336 318.133L114.466 315.425C114.565 315.191 114.898 315.191 114.995 315.425L116.125 318.133C116.742 319.607 117.913 320.78 119.389 321.397Z" fill="#B8DEDA"/>
<path d="M79.4315 297.721L80.5317 298.18C80.6262 298.221 80.6262 298.357 80.5317 298.395L79.4315 298.855C78.8319 299.107 78.3549 299.581 78.1035 300.183L77.6436 301.283C77.6028 301.378 77.4674 301.378 77.4287 301.283L76.9689 300.183C76.7174 299.584 76.2425 299.107 75.6409 298.855L74.5406 298.395C74.4461 298.354 74.4461 298.219 74.5406 298.18L75.6409 297.721C76.2404 297.469 76.7174 296.994 76.9689 296.393L77.4287 295.292C77.4695 295.198 77.6049 295.198 77.6436 295.292L78.1035 296.393C78.3549 296.992 78.8298 297.469 79.4315 297.721Z" fill="#B8DEDA"/>
<path d="M326.772 49.7479L327.872 50.2078C327.967 50.2486 327.967 50.384 327.872 50.4227L326.772 50.8825C326.173 51.1339 325.696 51.6088 325.444 52.2105L324.984 53.3107C324.944 53.4053 324.808 53.4053 324.77 53.3107L324.31 52.2105C324.058 51.611 323.583 51.1339 322.982 50.8825L321.881 50.4227C321.787 50.3818 321.787 50.2464 321.881 50.2078L322.982 49.7479C323.581 49.4965 324.058 49.0216 324.31 48.4199L324.77 47.3197C324.81 47.2251 324.946 47.2251 324.984 47.3197L325.444 48.4199C325.696 49.0194 326.171 49.4965 326.772 49.7479Z" fill="#B8DEDA"/>
<path d="M61.5464 189.052L62.6467 189.512C62.7412 189.553 62.7412 189.689 62.6467 189.727L61.5464 190.187C60.9469 190.438 60.4699 190.913 60.2185 191.515L59.7586 192.615C59.7178 192.71 59.5824 192.71 59.5437 192.615L59.0839 191.515C58.8324 190.916 58.3575 190.438 57.7559 190.187L56.6556 189.727C56.5611 189.686 56.5611 189.551 56.6556 189.512L57.7559 189.052C58.3554 188.801 58.8324 188.326 59.0839 187.724L59.5437 186.624C59.5845 186.53 59.7199 186.53 59.7586 186.624L60.2185 187.724C60.4699 188.324 60.9448 188.801 61.5464 189.052Z" fill="#B8DEDA"/>
<path d="M396.402 105.547L397.902 106.175C398.033 106.229 398.033 106.413 397.902 106.469L396.402 107.097C395.585 107.438 394.934 108.087 394.593 108.906L393.965 110.406C393.911 110.537 393.727 110.537 393.671 110.406L393.043 108.906C392.702 108.09 392.053 107.438 391.234 107.097L389.734 106.469C389.603 106.416 389.603 106.231 389.734 106.175L391.234 105.547C392.05 105.206 392.702 104.557 393.043 103.738L393.671 102.238C393.724 102.107 393.909 102.107 393.965 102.238L394.593 103.738C394.934 104.555 395.583 105.206 396.402 105.547Z" fill="#B8DEDA"/>
<path d="M385.608 208.616L387.48 209.398C387.643 209.467 387.643 209.697 387.48 209.763L385.608 210.545C384.59 210.971 383.777 211.781 383.352 212.802L382.57 214.673C382.501 214.837 382.271 214.837 382.204 214.673L381.422 212.802C380.997 211.783 380.186 210.971 379.166 210.545L377.294 209.763C377.131 209.694 377.131 209.464 377.294 209.398L379.166 208.616C380.184 208.19 380.997 207.38 381.422 206.359L382.204 204.488C382.273 204.324 382.503 204.324 382.57 204.488L383.352 206.359C383.777 207.378 384.587 208.19 385.608 208.616Z" fill="#B9D257"/>
<path d="M166.914 112.181L167.98 112.626C168.072 112.664 168.072 112.795 167.98 112.834L166.914 113.279C166.334 113.522 165.872 113.982 165.631 114.562L165.186 115.628C165.148 115.72 165.016 115.72 164.978 115.628L164.533 114.562C164.29 113.982 163.83 113.52 163.25 113.279L162.184 112.834C162.092 112.795 162.092 112.664 162.184 112.626L163.25 112.181C163.83 111.938 164.292 111.478 164.533 110.898L164.978 109.832C165.016 109.74 165.148 109.74 165.186 109.832L165.631 110.898C165.874 111.478 166.334 111.94 166.914 112.181Z" fill="#B9D257"/>
<path d="M130.342 372.578C133.754 372.578 136.52 369.812 136.52 366.4C136.52 362.988 133.754 360.222 130.342 360.222C126.93 360.222 124.164 362.988 124.164 366.4C124.164 369.812 126.93 372.578 130.342 372.578Z" fill="#B9D257"/>
<path d="M43.5258 321.397C44.7968 321.397 45.8272 320.366 45.8272 319.095C45.8272 317.824 44.7968 316.794 43.5258 316.794C42.2548 316.794 41.2244 317.824 41.2244 319.095C41.2244 320.366 42.2548 321.397 43.5258 321.397Z" fill="#B8DEDA"/>
<path d="M298.529 115.697C299.8 115.697 300.831 114.666 300.831 113.395C300.831 112.124 299.8 111.094 298.529 111.094C297.258 111.094 296.228 112.124 296.228 113.395C296.228 114.666 297.258 115.697 298.529 115.697Z" fill="#B8DEDA"/>
<path d="M348.963 138.251C350.843 138.251 352.367 136.727 352.367 134.847C352.367 132.968 350.843 131.444 348.963 131.444C347.084 131.444 345.56 132.968 345.56 134.847C345.56 136.727 347.084 138.251 348.963 138.251Z" fill="#3B9B91"/>
<path d="M354.174 133.268C354.007 132.679 352.93 132.426 351.439 132.522C351.649 132.748 351.823 133.004 351.967 133.279C352.305 133.365 352.528 133.513 352.588 133.721C352.647 133.921 352.546 134.153 352.322 134.396C351.819 134.942 350.687 135.539 349.301 135.935C347.859 136.347 346.537 136.427 345.841 136.197C345.57 136.109 345.392 135.973 345.338 135.791C345.282 135.595 345.377 135.372 345.587 135.135C345.579 135.039 345.557 134.944 345.557 134.845C345.557 134.622 345.583 134.407 345.624 134.196C344.341 134.893 343.587 135.662 343.752 136.244C343.916 136.814 344.928 137.069 346.344 136.996C347.251 136.949 348.323 136.771 349.447 136.451C350.547 136.137 351.533 135.735 352.32 135.305C353.592 134.611 354.338 133.848 354.172 133.27L354.174 133.268Z" fill="#B8DEDA"/>
<path d="M41.0225 265.688C47.5036 265.688 52.7575 260.434 52.7575 253.953C52.7575 247.472 47.5036 242.218 41.0225 242.218C34.5415 242.218 29.2876 247.472 29.2876 253.953C29.2876 260.434 34.5415 265.688 41.0225 265.688Z" fill="#0A8276"/>
<path d="M58.2649 261.357C59.1287 259.43 56.8574 256.372 52.7079 253.318C52.7659 254.38 52.6563 255.442 52.4243 256.49C53.1248 257.47 53.3827 258.351 53.0797 259.032C52.7874 259.686 52.0052 260.075 50.8814 260.218C48.3414 260.541 44.0308 259.604 39.4945 257.569C34.7756 255.452 31.1183 252.732 29.7903 250.579C29.2745 249.743 29.1005 248.991 29.3669 248.395C29.6527 247.759 30.4027 247.377 31.4793 247.224C31.6727 246.949 31.8252 246.657 32.0466 246.395C32.5408 245.808 33.0866 245.292 33.6625 244.828C28.7309 243.816 25.0348 244.171 24.1817 246.07C23.3458 247.936 25.4496 250.856 29.3433 253.808C31.8381 255.702 35.0636 257.605 38.7381 259.256C42.3375 260.87 45.8337 262 48.8614 262.614C53.7544 263.607 57.4182 263.248 58.267 261.357H58.2649Z" fill="#6CB4AD"/>
<path d="M201.661 356.376L195.836 328.989C195.836 328.989 188.674 328.886 187.33 324.07C185.405 317.172 188.998 312.75 190.3 303.723C191.534 295.187 189.062 290.221 194.151 285.419C196.302 283.388 199.764 285.823 199.764 285.823L201.661 356.376Z" fill="#0A8276"/>
<path d="M200.099 298.288L197.662 301.885L195.836 328.987L201.661 356.376L200.099 298.288Z" fill="#06534B"/>
<path d="M263.572 304.273C263.572 304.273 259.925 304.773 258.617 308.08C257.989 309.664 257.231 312.426 259.925 317.765C260.993 319.884 263.929 323.561 264.49 326.075C266.714 336.052 267.788 343.726 274.789 346.087C282.417 348.662 287.001 341.117 288.366 338.831C288.366 338.831 295.99 346.161 301.723 345.561L263.574 304.273H263.572Z" fill="#0A8276"/>
<path d="M263.572 304.273L288.363 338.831C288.363 338.831 295.347 345.542 300.975 345.591L301.409 345.221L263.574 304.273H263.572Z" fill="#06534B"/>
<path d="M202.119 281.954C194.997 284.43 187.162 281.088 184.021 274.234C172.855 249.863 150.834 185.49 147.879 179.258C144.033 171.146 138.8 145.003 154.966 135.909C165.248 130.126 227.101 110.215 246.351 106.532C265.598 102.849 273.003 123.691 273.571 129.954L291.997 233.803C294.043 243.687 287.609 252.253 279.115 255.203L202.119 281.954Z" fill="#06534B"/>
<path d="M184.707 275.54C184.78 275.667 184.866 275.783 184.943 275.907C185.126 276.198 185.308 276.486 185.508 276.758C185.603 276.887 185.706 277.01 185.805 277.134C186.005 277.39 186.209 277.644 186.424 277.884C186.527 277.998 186.634 278.106 186.74 278.218C186.969 278.458 187.202 278.692 187.447 278.914C187.548 279.006 187.653 279.096 187.756 279.187C188.02 279.414 188.291 279.634 188.57 279.842C188.663 279.911 188.757 279.98 188.852 280.048C189.159 280.265 189.473 280.472 189.795 280.663C189.87 280.708 189.946 280.755 190.023 280.798C190.382 281.005 190.747 281.194 191.121 281.37C191.168 281.391 191.216 281.417 191.263 281.439C191.688 281.632 192.122 281.808 192.565 281.961C178.009 247.555 154.315 178.508 150.914 171.333C150.039 169.489 146.184 150.586 151.453 138.455C141.959 147.059 143.145 163.414 145.817 173.357C146.599 175.899 147.267 177.833 147.729 178.912C147.781 179.026 147.832 179.148 147.884 179.256C147.931 179.353 147.98 179.464 148.036 179.591C148.148 179.842 148.277 180.148 148.421 180.506C148.713 181.222 149.074 182.148 149.498 183.259C150.026 184.647 150.651 186.326 151.358 188.247C151.642 189.016 151.937 189.822 152.246 190.664C152.708 191.928 153.198 193.273 153.714 194.689C153.886 195.162 154.06 195.641 154.236 196.127C154.943 198.076 155.691 200.143 156.475 202.305C156.67 202.846 156.868 203.392 157.068 203.944C158.267 207.258 159.539 210.773 160.861 214.407C161.08 215.013 161.303 215.621 161.525 216.234C161.97 217.458 162.421 218.694 162.874 219.938C163.102 220.561 163.33 221.184 163.56 221.812C164.017 223.065 164.479 224.326 164.944 225.59C165.64 227.487 166.342 229.393 167.047 231.301C167.518 232.573 167.989 233.843 168.461 235.111C169.877 238.915 171.296 242.69 172.692 246.356C173.159 247.579 173.621 248.789 174.083 249.984C174.543 251.178 175 252.358 175.452 253.521C178.619 261.652 181.582 268.898 184.023 274.229C184.23 274.68 184.46 275.117 184.707 275.538V275.54Z" fill="#08665C"/>
<path d="M263.245 134.847C289.887 143.067 315.317 154.858 339.431 170.531C339.431 170.531 343.731 173.583 343.731 178.02C343.731 180.998 340.235 223.971 340.235 223.971L310.583 221.434C310.583 221.434 309.197 203.271 310.722 197.927L308.662 197.489C305.653 198.778 290.36 192.611 280.174 189.181C272.967 171.309 265.199 151.413 263.245 134.847Z" fill="#06534B"/>
<path d="M159.578 170.813C151.328 183.663 122.806 250.072 121.218 263.543C121.218 263.543 126.807 270.658 129.12 272.601C131.432 274.543 136.798 275.158 140.876 274.335C154.683 271.552 179.985 232.752 179.985 232.752C181.52 210.844 170.973 189.263 159.578 170.811V170.813Z" fill="#06534B"/>
<path d="M158.119 251.958L147.793 227.302L121.197 228.845C121.197 228.845 117.941 255.835 121.218 263.545L158.119 251.96V251.958Z" fill="#06534B"/>
<path d="M117.701 244.201C117.701 244.201 126.217 251.398 140.083 247.436C153.428 243.621 153.916 237.398 153.916 237.398L149.132 216.95L156.086 204.916C156.086 204.916 165.049 197.335 166.783 195.824C169.02 193.873 168.326 188.87 163.409 190.209C158.493 191.546 147.26 196.628 147.26 196.628L144.811 196.252C144.811 196.252 152.989 191.4 154.792 189.994C159.389 186.408 155.018 181.921 155.018 181.921L133.357 191.816C133.357 191.816 120.844 206.152 120.363 209.093C119.882 212.035 117.703 244.208 117.703 244.208L117.701 244.201Z" fill="#0A8276"/>
<path d="M254.672 134.203C254.188 128.668 252.62 123.257 250.267 117.936C249.609 116.451 247.873 115.779 246.375 116.406L244.353 117.253C237.588 108.395 226.921 102.675 214.916 102.675C194.467 102.675 177.891 119.251 177.891 139.7C177.891 141.488 178.024 143.243 178.269 144.965L176.245 145.813C174.747 146.441 174.008 148.156 174.611 149.662C176.861 155.271 179.683 160.217 183.323 164.221C184.172 165.155 185.526 165.441 186.69 164.953L187.518 164.605C194.291 172.051 204.055 176.725 214.913 176.725C235.362 176.725 251.938 160.148 251.938 139.7C251.938 138.999 251.915 138.307 251.876 137.618L252.837 137.214C254.033 136.711 254.781 135.495 254.667 134.203H254.672Z" fill="#06534B"/>
<path d="M307.708 215.462L313.546 249.135L314.204 276.039C314.243 277.442 314.782 278.781 315.727 279.817C318.291 282.625 323.521 288.21 325.668 289.418C328.565 291.047 332.407 288.752 329.708 284.957C327.817 282.296 325.105 277.279 325.105 277.279L330.037 278.899C331.001 279.215 332.059 279.024 332.852 278.39L335.448 276.312L338.043 276.871C338.918 277.058 339.831 276.847 340.534 276.295L343.407 274.034L346.789 274.077C347.702 274.09 348.562 273.652 349.091 272.908L349.854 271.834C350.386 271.082 350.679 270.185 350.687 269.264L350.735 264.532C350.745 263.402 350.384 262.301 349.705 261.399L346.233 256.785L343.669 251.428C343.669 251.428 340.944 245.418 337.803 243.346L342.898 210.911C343.035 210.039 342.393 209.242 341.512 209.179C331.627 208.487 320.025 209.828 309.947 212.099C308.421 212.443 307.439 213.926 307.706 215.467L307.708 215.462Z" fill="#0A8276"/>
<path d="M325.221 320.913C317.829 297.766 289.165 249.786 289.165 249.786L284.36 243.133C287.885 241.556 278.922 182.868 278.922 182.868L263.244 134.845C195.077 143.952 159.576 170.813 159.576 170.813C174.846 200.951 179.984 232.754 179.984 232.754C186.147 245.155 189.621 261.921 193.732 261.226L196.259 277.326C196.259 277.326 200.415 351.434 201.309 355.136C202.869 361.6 208.723 367.559 210.225 368.73C213.345 371.165 231.505 372.344 234.848 367.217C238.192 362.092 249.852 314.817 250.095 298.335L254.902 297.568C254.902 297.568 262.24 305.974 274.11 321.876C283.275 334.152 296.274 342.426 301.723 345.559C303.326 346.48 305.183 346.863 307.022 346.663C309.165 346.429 312.18 346.102 314.606 345.838C317.846 345.486 320.711 343.524 322.135 340.593C324.2 336.342 325.262 330.983 325.765 327.573C326.096 325.338 325.911 323.064 325.223 320.911L325.221 320.913Z" fill="#06534B"/>
<path d="M206.739 313.85L206.93 352.1C206.941 354.41 208.374 356.488 210.54 357.294C216.409 359.477 222.185 360.369 228.778 359.898C230.993 359.739 232.897 358.267 233.639 356.174C237.898 344.147 240.562 328.641 242.75 316.276C243.081 314.405 241.71 312.664 239.812 312.544L210.132 310.653C208.288 310.535 206.733 312.004 206.741 313.85H206.739Z" fill="#08665C"/>
<path d="M208.982 313.85L209.173 352.1C209.184 354.41 210.617 356.488 212.783 357.294C218.652 359.477 224.428 360.369 231.021 359.898C233.236 359.739 235.14 358.267 235.882 356.174C240.141 344.147 242.805 328.641 244.993 316.276C245.324 314.405 243.953 312.664 242.055 312.544L212.375 310.653C210.531 310.535 208.976 312.004 208.984 313.85H208.982Z" fill="#B9D257"/>
<path d="M324.69 316.949C320.532 305.553 290.063 289.134 281.676 294.169C280.161 295.08 278.599 297.91 279.641 299.339L303.696 332.326C305.075 334.329 307.706 335.079 309.904 334.039C313.299 332.431 320.343 327.951 324.497 320.02C324.993 319.07 325.058 317.955 324.69 316.947V316.949Z" fill="#08665C"/>
<path d="M210.252 181.226C210.252 181.226 223.448 182.52 233.415 177.257C243.381 171.995 249.162 161.73 249.162 161.73C249.162 161.73 246.312 173.879 233.415 179.537C220.519 185.195 210.252 181.226 210.252 181.226Z" fill="#08665C"/>
<path d="M310.299 200.272C310.299 200.272 306.865 200.495 307.267 197.925C307.669 195.355 316.754 175.175 339.223 169.627C344.354 168.101 348.031 176.284 343.731 178.018C343.731 178.018 337.304 176.849 326.241 184.607C313.288 193.692 310.301 200.272 310.301 200.272H310.299Z" fill="#6CB4AD"/>
<path d="M157.253 174.836C154.027 172.154 160.291 165.288 163.856 167.921C169.643 172.193 187.27 201.475 179.986 232.754L179.027 234.194C179.027 234.194 175.83 207.054 170.728 194.1C165.625 181.145 157.253 174.838 157.253 174.838V174.836Z" fill="#6CB4AD"/>
<path d="M269.288 267.441L256.167 295.703C256.167 295.703 283.215 334.971 294.451 340.004L293.164 337.78C293.164 337.78 266.791 300.989 265.386 296.191C263.981 291.392 264.606 288.274 265.074 284.879C265.543 281.486 269.989 270.133 269.288 267.441Z" fill="#08665C"/>
<path d="M211.335 365.569C211.335 365.569 206.111 360.893 204.873 351.681C203.636 342.469 203.361 285.408 203.361 285.408L223.178 288.571C223.178 288.571 203.242 280.173 197.739 273.649C197.187 272.994 196.377 272.62 195.522 272.62L196.261 277.324C196.261 277.324 199.748 347.13 201.663 356.374C203.225 363.917 211.337 365.567 211.337 365.567L211.335 365.569Z" fill="#08665C"/>
<path d="M317.693 339.127C321.86 335.721 323.663 327.149 325.765 327.575C328.18 328.065 328.15 330.549 327.737 331.924C327.325 333.299 322.711 342.4 319.823 344.875C316.935 347.351 303.863 348.72 302.587 347.557C300.588 345.737 300.842 344.609 300.842 344.609C300.842 344.609 312.47 343.399 317.693 339.129V339.127Z" fill="#0A8276"/>
<path d="M203.745 360.88L203.047 362.438C202.736 363.135 202.83 363.947 203.299 364.548C204.998 366.727 209.318 371.79 213.42 372.789C217.651 373.819 227.035 372.547 230.54 372.011C231.361 371.887 232.025 371.279 232.224 370.473L232.581 369.048C232.581 369.048 222.23 369.45 215.48 368.03C208.729 366.609 203.745 360.885 203.745 360.885V360.88Z" fill="#0A8276"/>
<path d="M182.229 126.901C182.229 126.901 180.815 139.096 181.719 143.518C182.624 147.938 186.082 155.051 186.082 155.051C186.082 155.051 187.339 152.698 189.627 149.496C190.066 148.882 190.719 148.448 191.456 148.278L192.541 148.029C189.352 152.208 186.468 157.23 185.669 162.402L185.635 163.038C185.613 163.427 185.162 163.625 184.859 163.38C181.365 160.55 178.528 156.13 176.358 149.131C176.117 148.357 176.5 147.524 177.245 147.206L179.732 146.146C179.732 146.146 178.567 136.287 182.231 126.903L182.229 126.901Z" fill="#08665C"/>
<path d="M231.249 237.181C230.641 234.733 231.782 232.264 233.877 231.082C233.393 231.069 232.899 231.117 232.407 231.239C229.467 231.97 227.675 234.948 228.408 237.888C229.139 240.827 232.117 242.62 235.057 241.887C235.549 241.764 236.006 241.573 236.428 241.337C234.023 241.274 231.857 239.628 231.249 237.181Z" fill="#08665C"/>
<path d="M215.483 240.295C214.875 237.847 216.016 235.378 218.111 234.196C217.627 234.183 217.133 234.231 216.641 234.353C213.701 235.084 211.909 238.062 212.642 241.002C213.372 243.941 216.351 245.734 219.29 245.001C219.783 244.878 220.24 244.687 220.661 244.451C218.257 244.388 216.091 242.742 215.483 240.295Z" fill="#08665C"/>
<path d="M137.728 195.17C137.728 195.17 149.325 188.075 153.294 189.182L154.792 189.992L144.811 196.249L137.726 195.173L137.728 195.17Z" fill="#08665C"/>
<path d="M147.262 196.625C147.262 196.625 152.553 197.141 151.781 203.482L135.347 199.479C135.089 199.417 134.823 199.548 134.719 199.793C134.591 200.091 134.747 200.433 135.057 200.528C137.453 201.258 146.56 204.125 148.268 206.054C150.239 208.283 149.693 212.37 145.268 211.197C141.428 210.178 133.409 207.118 131.359 206.329C131.09 206.226 130.794 206.366 130.699 206.637C130.615 206.871 130.712 207.131 130.929 207.251C132.962 208.377 142.651 213.745 144.413 214.665C146.384 215.694 144.076 221.215 140.072 219.594C136.069 217.974 125.647 212.482 125.647 212.482V213.853C125.647 213.853 134.797 224.058 137.728 225.888C140.661 227.719 146.467 225.747 147.838 222.755C149.209 219.764 149.134 216.951 149.134 216.951L154.018 208.496C154.018 208.496 156.356 197.313 150.675 195.121L147.26 196.627L147.262 196.625Z" fill="#08665C"/>
<path d="M244.355 117.25C248.717 122.962 251.457 129.978 251.88 137.615C251.88 137.615 252.63 135.72 252.63 134.345C252.357 126.692 249.563 121.445 246.619 118.449L244.352 117.253L244.355 117.25Z" fill="#08665C"/>
<path d="M187.268 164.315C194.05 171.927 203.919 176.725 214.915 176.725C235.364 176.725 251.94 160.149 251.94 139.7C251.94 139.601 251.934 139.502 251.934 139.403C245.139 134.566 236.836 131.713 227.858 131.713C207.979 131.713 191.37 145.67 187.268 164.315Z" fill="#6CB4AD"/>
<path d="M191.871 162.463C192.37 159.547 194.205 155.541 195.913 153.231C196.136 152.928 196.605 153.051 196.657 153.423C197.785 161.704 201.898 167.788 206.625 172.492L204.723 172.154C199.88 170.579 195.668 167.805 192.183 163.64C191.91 163.314 191.8 162.882 191.871 162.463Z" fill="#B8DEDA"/>
<path d="M216.57 172.154C216.57 172.154 221.517 170.968 227.248 168.039C232.979 165.11 235.297 161.844 236.335 162.776C237.373 163.709 232.179 169.339 227.733 170.813C222.671 172.491 216.57 172.154 216.57 172.154Z" fill="#B8DEDA"/>
<path d="M125.043 247.717L119.871 245.624C119.592 252.689 119.742 260.073 121.218 263.543C121.218 263.543 126.807 270.658 129.12 272.601C130.082 273.409 131.576 273.985 133.282 274.324L135.403 272.15C128.95 266.999 125.043 247.717 125.043 247.717Z" fill="#08665C"/>
<path d="M121.218 263.543C121.218 263.543 121.573 266.296 122.314 268.578C123.056 270.86 126.887 275.171 130.332 276.32C133.927 277.519 145.277 276.748 149.499 272.588C153.15 268.993 158.783 260.763 158.119 251.959C158.119 251.959 155.675 263.429 149.899 267.441C144.121 271.453 132.216 274.077 127.613 270.516C122.467 266.534 121.22 263.545 121.22 263.545L121.218 263.543Z" fill="#6CB4AD"/>
<path d="M257.701 255.732C250.367 259.005 241.587 261.927 232.452 262.759C214.387 264.405 201.253 261.768 196.068 260.434C194.531 260.038 193.233 259.02 192.486 257.621C189.797 252.575 183.157 239.781 181.509 233.51C181.509 233.51 183.987 227.341 184.124 220.821C184.124 220.821 197.699 253.684 199.747 255.096C201.883 256.568 213.753 261.207 230.955 259.084C234.96 258.59 247.956 257.477 251.786 256.482L257.701 255.734V255.732Z" fill="#08665C"/>
<path d="M227.015 131.73L220.429 102.72C220.115 101.338 218.942 100.3 217.528 100.206C216.675 100.15 215.813 100.12 214.943 100.12C205.379 100.12 196.613 103.519 189.771 109.169C188.581 110.153 188.226 111.827 188.944 113.196L203 139.966C209.721 134.94 218.018 131.91 227.015 131.732V131.73Z" fill="#0A8276"/>
<path d="M261.06 134.087C261.06 134.087 268.34 179.355 280.174 189.182L281.416 189.605C281.416 189.605 271.207 152.773 272.891 138C273.944 134.848 261.062 129.622 261.062 134.087H261.06Z" fill="#6CB4AD"/>
<path d="M324.696 315.559C320.646 304.458 312.906 289.31 305.731 275.936C305.419 275.356 304.628 275.287 304.209 275.796C299.576 281.448 289.846 289.265 281.674 294.171C280.198 295.059 279.794 297.012 280.808 298.404L304.241 330.541C305.584 332.492 308.148 333.222 310.288 332.21C313.598 330.646 320.459 326.279 324.503 318.552C324.987 317.628 325.049 316.541 324.692 315.559H324.696Z" fill="#B9D257"/>
<path d="M257.701 196.735C260.056 196.735 261.965 194.826 261.965 192.471C261.965 190.117 260.056 188.208 257.701 188.208C255.347 188.208 253.438 190.117 253.438 192.471C253.438 194.826 255.347 196.735 257.701 196.735Z" fill="#08665C"/>
</svg>
