<svg width="422" height="422" viewBox="0 0 422 422" fill="none" xmlns="http://www.w3.org/2000/svg">
<path d="M95.0625 158.658C103.107 131.568 168.794 127.178 241.774 148.855C314.755 170.529 367.396 210.061 359.348 237.154" stroke="#B8DEDA" stroke-width="3.33656" stroke-miterlimit="10" stroke-dasharray="8.01 8.01"/>
<path d="M310.549 322.503C333.479 305.984 315.992 242.518 271.491 180.748C226.99 118.978 172.327 82.2949 149.398 98.8139C126.468 115.333 143.955 178.799 188.456 240.569C232.957 302.339 287.62 339.022 310.549 322.503Z" stroke="#3B9B91" stroke-width="3.33656" stroke-miterlimit="10" stroke-dasharray="8.01 8.01"/>
<path d="M138.197 318.169C137.153 317.334 136.202 316.397 135.348 315.366" stroke="#6CB4AD" stroke-width="3.33656" stroke-miterlimit="10"/>
<path d="M131.521 308.593C122.242 283.565 143.242 229.92 184.319 178.55C227.457 124.601 277.913 91.696 303.381 99.24" stroke="#6CB4AD" stroke-width="3.33656" stroke-miterlimit="10" stroke-dasharray="7.81 7.81"/>
<path d="M307.007 100.678C308.202 101.285 309.323 102.006 310.367 102.84" stroke="#6CB4AD" stroke-width="3.33656" stroke-miterlimit="10"/>
<path d="M184.319 178.551C231.862 119.09 288.296 85.1937 310.368 102.841" stroke="#6CB4AD" stroke-width="3.33656" stroke-miterlimit="10"/>
<mask id="mask0_14261_808" style="mask-type:luminance" maskUnits="userSpaceOnUse" x="124" y="106" width="206" height="206">
<path d="M227.203 311.423C283.853 311.423 329.776 265.499 329.776 208.85C329.776 152.201 283.853 106.277 227.203 106.277C170.554 106.277 124.631 152.201 124.631 208.85C124.631 265.499 170.554 311.423 227.203 311.423Z" fill="white"/>
</mask>
<g mask="url(#mask0_14261_808)">
<path d="M514.222 -2.79181H-88.792V375.881H514.222V-2.79181Z" fill="#0A8276"/>
<path d="M470.372 94.2592H435.175C434.904 94.2592 434.647 94.1524 434.457 93.9622L424.267 83.769C424.077 83.5788 423.82 83.4721 423.55 83.4721H373.809C373.538 83.4721 373.281 83.3653 373.091 83.1751L363.352 73.4357C363.162 73.2455 362.905 73.1387 362.634 73.1387H347.563C347.293 73.1387 347.036 73.2455 346.846 73.4357L339.455 80.8262C339.265 81.0164 339.008 81.1231 338.738 81.1231H312.249C311.979 81.1231 311.722 81.2299 311.532 81.4201L297.501 95.4503C297.311 95.6405 297.054 95.7473 296.784 95.7473H272.167C271.897 95.7473 271.64 95.8541 271.45 96.0442L261.657 105.837C261.467 106.027 261.21 106.134 260.939 106.134H250.743C250.473 106.134 250.216 106.027 250.025 105.837L237.67 93.4818C237.48 93.2916 237.223 93.1848 236.953 93.1848H218.902C218.632 93.1848 218.375 93.2916 218.185 93.4818L195.926 115.74C195.529 116.137 195.529 116.778 195.926 117.175L207.104 128.352C207.501 128.749 208.142 128.749 208.539 128.352L212.753 124.138C212.943 123.948 213.05 123.691 213.05 123.421V116.107C213.05 115.837 213.156 115.58 213.347 115.39L218.725 110.011C218.982 109.754 219.336 109.607 219.699 109.607H220.577C221.481 109.607 221.935 110.702 221.294 111.339L218.622 114.012C218.225 114.409 218.225 115.049 218.622 115.446L223.76 120.585C224.157 120.982 224.157 121.622 223.76 122.019L219.556 126.223C219.366 126.414 219.259 126.671 219.259 126.941V132.326C219.259 132.887 218.805 133.34 218.245 133.34H195.239C194.969 133.34 194.712 133.447 194.522 133.637L183.738 144.421C183.548 144.611 183.441 144.868 183.441 145.138V150.737C183.441 151.298 182.987 151.751 182.427 151.751H171.486C170.926 151.751 170.472 152.205 170.472 152.766V157.617C170.472 157.887 170.579 158.144 170.769 158.335L178.383 165.949C178.78 166.346 179.42 166.346 179.817 165.949L190.434 155.332C190.625 155.141 190.882 155.035 191.152 155.035H199.453C199.723 155.035 199.98 155.141 200.171 155.332L209.646 164.807C210.287 165.448 211.378 164.994 211.378 164.09V159.029C211.378 158.124 212.472 157.671 213.11 158.311L223.633 168.835C224.274 169.475 225.365 169.022 225.365 168.117V163.94C225.365 163.036 226.459 162.582 227.097 163.223L235.958 172.084C236.149 172.275 236.255 172.532 236.255 172.802V178.537C236.255 178.808 236.362 179.065 236.552 179.255L251.767 194.469C251.957 194.66 252.064 194.917 252.064 195.187V202.397C252.064 203.301 250.97 203.755 250.332 203.115L242.271 195.053C242.081 194.863 241.974 194.606 241.974 194.336V191.13C241.974 190.859 241.868 190.602 241.677 190.412L231.157 179.892C230.967 179.702 230.71 179.595 230.44 179.595H216.973C216.703 179.595 216.446 179.488 216.256 179.298L206.57 169.612C206.38 169.422 206.123 169.315 205.853 169.315H197.548C197.278 169.315 197.021 169.422 196.831 169.612L191.332 175.111C191.142 175.301 190.885 175.408 190.615 175.408H176.668C176.398 175.408 176.141 175.514 175.95 175.705L159.221 192.434C159.031 192.624 158.924 192.881 158.924 193.152V209.294C158.924 209.564 159.031 209.821 159.221 210.011L171.71 222.5C171.9 222.69 172.157 222.797 172.427 222.797H194.438C194.709 222.797 194.965 222.904 195.156 223.094L199.703 227.642C200.1 228.039 200.1 228.679 199.703 229.076L196.474 232.306C196.077 232.703 196.077 233.344 196.474 233.741L202.346 239.613C202.536 239.803 202.643 240.06 202.643 240.331V259.829C202.643 260.1 202.75 260.357 202.94 260.547L208.559 266.166C208.749 266.356 208.856 266.613 208.856 266.883V275.725C208.856 275.995 208.962 276.252 209.153 276.442L215.495 282.785C215.686 282.975 215.792 283.232 215.792 283.502V288.754C215.792 289.315 216.246 289.768 216.807 289.768H228.161C228.431 289.768 228.688 289.662 228.878 289.471L242.435 275.915C242.625 275.725 242.732 275.468 242.732 275.198V257.534C242.732 257.264 242.838 257.007 243.029 256.816L256.075 243.774C256.472 243.377 256.472 242.736 256.075 242.339L250.306 236.57C249.909 236.173 249.909 235.533 250.306 235.136L272.477 212.964C272.667 212.774 272.774 212.52 272.774 212.253L272.814 205.463C272.814 204.9 272.36 204.442 271.8 204.442H267.809C267.539 204.442 267.282 204.336 267.092 204.146L263.235 200.288C262.838 199.891 262.838 199.251 263.235 198.854L273.695 188.394C273.885 188.203 274.142 188.097 274.412 188.097H296.117C296.387 188.097 296.644 188.203 296.834 188.394L303.554 195.113C303.951 195.51 303.951 196.151 303.554 196.548L295.433 204.669C295.036 205.066 295.036 205.707 295.433 206.104L310.154 220.825C310.551 221.222 311.191 221.222 311.588 220.825L317.564 214.849C317.754 214.659 317.861 214.402 317.861 214.132V204.055C317.861 203.785 317.968 203.528 318.158 203.338L329.245 192.251C329.642 191.854 330.283 191.854 330.68 192.251L338.598 200.168C338.788 200.359 338.895 200.615 338.895 200.886V216.12C338.895 216.391 339.002 216.648 339.192 216.838L351.043 228.689C351.684 229.33 352.775 228.876 352.775 227.972V220.204C352.775 219.934 352.668 219.677 352.478 219.487L346.782 213.792C346.592 213.601 346.485 213.344 346.485 213.074V211.019C346.485 210.115 347.58 209.661 348.217 210.301L353.299 215.383C353.696 215.78 354.336 215.78 354.733 215.383L361.667 208.45C362.064 208.053 362.064 207.412 361.667 207.015L357.529 202.878C356.889 202.237 357.343 201.146 358.247 201.146H370.095C370.365 201.146 370.622 201.039 370.812 200.849L383.101 188.56C383.291 188.37 383.398 188.113 383.398 187.843V177.109C383.398 176.839 383.291 176.582 383.101 176.392L378.69 171.981C378.5 171.791 378.393 171.534 378.393 171.264V164.791C378.393 163.91 379.434 163.443 380.085 164.033C382.37 166.105 386.347 169.769 388.029 171.651C388.436 172.105 389.14 172.111 389.547 171.654C393.641 167.02 411.268 150.173 413.827 147.731C414.027 147.541 414.138 147.277 414.138 147V136.313C414.138 136.043 414.031 135.786 413.841 135.596L408.792 130.548C408.395 130.151 408.395 129.51 408.792 129.113L414.601 123.304C414.792 123.114 415.048 123.007 415.319 123.007H428.044C428.315 123.007 428.572 122.9 428.762 122.71L435.105 116.367C435.295 116.177 435.552 116.07 435.822 116.07H442.545C443.449 116.07 443.903 117.165 443.262 117.802L439.035 122.029C438.845 122.22 438.738 122.476 438.738 122.747V129.553C438.738 130.458 439.832 130.911 440.47 130.271L444.887 125.853C445.077 125.663 445.334 125.556 445.605 125.556H455.881C456.152 125.556 456.408 125.449 456.599 125.259L471.133 110.725C471.323 110.535 471.58 110.428 471.85 110.428H484.499C485.403 110.428 485.857 109.334 485.216 108.696L471.076 94.5561C470.886 94.3659 470.629 94.2592 470.359 94.2592H470.372Z" fill="#9BBA43"/>
<path d="M133.329 228.539L111.778 206.988C111.588 206.798 111.331 206.691 111.061 206.691H101.191C100.921 206.691 100.664 206.798 100.474 206.988L93.11 214.352C92.713 214.749 92.0724 214.749 91.6753 214.352L72.787 195.464C72.5969 195.273 72.34 195.167 72.0697 195.167H57.6524C57.0919 195.167 56.6381 194.713 56.6381 194.152V188.46C56.6381 188.19 56.7449 187.933 56.935 187.743L60.1381 184.54C60.3283 184.35 60.5852 184.243 60.8555 184.243H80.4077C80.678 184.243 80.9349 184.136 81.1251 183.946L122.595 142.476C122.992 142.079 122.992 141.438 122.595 141.041L81.3487 99.7944C81.1585 99.6042 80.9016 99.4974 80.6313 99.4974H19.9893C19.719 99.4974 19.4621 99.3907 19.2719 99.2005L7.37041 87.299C7.18022 87.1088 6.92331 87.002 6.65305 87.002H-39.1546C-39.4249 87.002 -39.6818 87.1088 -39.872 87.299L-61.0191 108.446C-61.4162 108.843 -61.4162 109.484 -61.0191 109.881L-40.5493 130.351C-40.1522 130.748 -39.5116 130.748 -39.1146 130.351L-27.9004 119.136L-27.9137 119.123H-13.5999C-13.3296 119.123 -13.0727 119.23 -12.8825 119.42L14.7776 147.08C14.9678 147.27 15.0745 147.527 15.0745 147.798V167.41C15.0745 167.68 15.1813 167.937 15.3715 168.127L51.9068 204.663C52.097 204.853 52.3539 204.959 52.6242 204.959H69.5973C69.8676 204.959 70.1245 205.066 70.3147 205.256L85.0856 220.027C85.4827 220.424 85.4827 221.065 85.0856 221.462L72.3633 234.184C71.9662 234.581 71.9662 235.222 72.3633 235.619L93.7073 256.963C93.8975 257.153 94.0042 257.41 94.0042 257.68V319.711C94.0042 319.981 94.111 320.238 94.3012 320.428L105.419 331.545C105.816 331.942 106.456 331.942 106.853 331.545L110.861 327.538C111.258 327.141 111.258 326.5 110.861 326.103L103.56 318.803C103.163 318.406 103.163 317.765 103.56 317.368L115.538 305.39C115.729 305.2 115.835 304.943 115.835 304.673V296.718C115.835 296.448 115.942 296.191 116.132 296.001L150.315 261.818C150.506 261.628 150.612 261.371 150.612 261.1V246.483C150.612 246.213 150.719 245.956 150.909 245.766L156.335 240.34C156.732 239.943 156.732 239.303 156.335 238.906L146.565 229.136C146.375 228.946 146.118 228.839 145.848 228.839H134.04C133.769 228.839 133.512 228.732 133.322 228.542L133.329 228.539Z" fill="#9BBA43"/>
<path d="M190.118 57.9874H166.031C165.761 57.9874 165.504 57.8806 165.314 57.6905L158.747 51.1241C158.557 50.9339 158.3 50.8271 158.03 50.8271H136.586C136.315 50.8271 136.059 50.9339 135.868 51.1241L130.086 56.9064C129.896 57.0965 129.639 57.2033 129.369 57.2033H112.182C111.912 57.2033 111.655 57.3101 111.465 57.5003L103.527 65.438C103.35 65.6148 103.247 65.8484 103.23 66.0986L103.027 69.7521C103.01 70.0391 103.117 70.3227 103.324 70.5262L125.155 92.3573C125.345 92.5475 125.452 92.8044 125.452 93.0747V105.664C125.452 105.934 125.558 106.191 125.749 106.381L139.775 120.408C140.173 120.805 140.813 120.805 141.21 120.408L160.439 101.179C160.629 100.989 160.886 100.882 161.156 100.882H179.971C180.532 100.882 180.985 100.428 180.985 99.8679V78.7308C180.985 78.4606 181.092 78.2036 181.282 78.0135L190.832 68.4642C191.022 68.274 191.129 68.0171 191.129 67.7469V59.0017C191.129 58.4412 190.675 57.9874 190.114 57.9874H190.118Z" fill="white"/>
<path d="M316.727 328.706C293.798 345.222 239.135 308.536 194.639 246.763C150.139 184.99 132.655 121.522 155.584 105.006" stroke="#08665C" stroke-width="3.33656" stroke-miterlimit="10" stroke-dasharray="8.01 8.01"/>
<path d="M365.531 243.333C357.486 270.423 291.8 274.814 218.819 253.136C145.838 231.462 93.1974 191.93 101.245 164.837" stroke="#08665C" stroke-width="3.33656" stroke-miterlimit="10"/>
<path d="M316.55 109.024C338.621 126.671 317.971 189.181 270.429 248.642C222.886 308.103 166.451 341.999 144.38 324.352" stroke="#08665C" stroke-width="3.33656" stroke-miterlimit="10" stroke-dasharray="8.01 8.01"/>
<path d="M316.55 109.024C334.778 123.598 323.867 168.771 292.737 217.555" stroke="#08665C" stroke-width="3.33656" stroke-miterlimit="10"/>
<path d="M316.727 328.706C293.798 345.222 239.135 308.536 194.639 246.763C182.351 229.704 172.121 212.517 164.236 196.221" stroke="#08665C" stroke-width="3.33656" stroke-miterlimit="10"/>
<path d="M172.077 179.582L159.585 192.074L144.38 184.156L150.212 177.002L169.167 172.161L172.077 179.582Z" fill="#0A8276"/>
<path d="M151.595 178.692L150.018 181.768L164.761 189.329L166.339 186.253L151.595 178.692Z" fill="#08665C"/>
<path d="M163.495 177.424L160.419 175.847L152.858 190.59L155.934 192.168L163.495 177.424Z" fill="#08665C"/>
<path d="M283.545 216L300.628 228.726L284.936 248.034L278.343 235.115L269.488 229.823L283.545 216Z" fill="#0A8276"/>
<path d="M275.763 230.275L276.38 233.676L292.683 230.719L292.066 227.318L275.763 230.275Z" fill="#08665C"/>
<path d="M284.488 222.018L281.087 222.635L284.044 238.938L287.445 238.321L284.488 222.018Z" fill="#08665C"/>
<path d="M295.163 132.029C311.181 150.126 320.914 173.916 320.914 199.988C320.914 256.636 274.99 302.56 218.342 302.56C192.273 302.56 168.48 292.831 150.382 276.809C169.174 298.036 196.624 311.422 227.203 311.422C283.852 311.422 329.776 265.498 329.776 208.85C329.776 178.27 316.39 150.82 295.163 132.029Z" fill="#08665C"/>
</g>
<path d="M148.311 167.213C136.416 134.721 135.859 108.583 149.402 98.8267" stroke="#3B9B91" stroke-width="3.33656" stroke-miterlimit="10" stroke-dasharray="8.01 8.01"/>
<path d="M359.348 237.151C351.303 264.24 285.616 268.631 212.636 246.953C139.655 225.279 87.0143 185.747 95.0621 158.655" stroke="#B8DEDA" stroke-width="3.33656" stroke-miterlimit="10"/>
<path d="M270.976 233.784C268.797 236.68 266.552 239.573 264.246 242.459C216.704 301.92 160.269 335.816 138.198 318.169" stroke="#6CB4AD" stroke-width="3.33656" stroke-miterlimit="10" stroke-dasharray="8.01 8.01"/>
<path d="M310.367 102.841C329.069 117.795 317.097 164.957 284.085 215.183" stroke="#6CB4AD" stroke-width="3.33656" stroke-miterlimit="10"/>
<path d="M101.472 147.33H79.1367V169.665H101.472V147.33Z" fill="white"/>
<path d="M90.306 163.291L92.7502 165.735L104.467 154.019L102.022 151.574L90.306 163.291Z" fill="#B8DEDA"/>
<path d="M92.7479 151.576L90.3037 154.02L102.02 165.737L104.464 163.292L92.7479 151.576Z" fill="#B8DEDA"/>
<path d="M376.639 236.883L344.062 218.075L332.894 237.418L365.471 256.226L376.639 236.883Z" fill="white"/>
<path d="M351.241 241.941L353.685 244.386L365.402 232.669L362.957 230.225L351.241 241.941Z" fill="#B8DEDA"/>
<path d="M353.69 230.228L351.246 232.672L362.962 244.388L365.406 241.944L353.69 230.228Z" fill="#B8DEDA"/>
<path d="M350.626 129.808L353.07 132.252L364.787 120.536L362.342 118.092L350.626 129.808Z" fill="#6CB4AD"/>
<path d="M353.074 118.094L350.63 120.539L362.346 132.255L364.791 129.811L353.074 118.094Z" fill="#6CB4AD"/>
<path d="M197.974 344.982L200.418 347.426L212.135 335.71L209.69 333.266L197.974 344.982Z" fill="#B8DEDA"/>
<path d="M200.418 333.266L197.973 335.71L209.69 347.427L212.134 344.982L200.418 333.266Z" fill="#B8DEDA"/>
<path d="M379.836 167.874L382.28 170.318L393.996 158.602L391.552 156.158L379.836 167.874Z" fill="#B8DEDA"/>
<path d="M382.284 156.16L379.84 158.604L391.556 170.32L394 167.876L382.284 156.16Z" fill="#B8DEDA"/>
<path d="M20.0023 136.888L22.4465 139.332L34.1628 127.616L31.7186 125.172L20.0023 136.888Z" fill="#3B9B91"/>
<path d="M22.4447 125.174L20.0005 127.619L31.7168 139.335L34.161 136.891L22.4447 125.174Z" fill="#3B9B91"/>
<path d="M83.2235 249.025L85.6677 251.469L97.384 239.753L94.9398 237.309L83.2235 249.025Z" fill="#6CB4AD"/>
<path d="M85.6706 237.306L83.2263 239.751L94.9426 251.467L97.3869 249.023L85.6706 237.306Z" fill="#6CB4AD"/>
<path d="M269.581 224.092L270.198 227.493L286.502 224.536L285.885 221.135L269.581 224.092Z" fill="#6CB4AD"/>
<path d="M278.306 215.833L274.904 216.45L277.861 232.754L281.263 232.137L278.306 215.833Z" fill="#6CB4AD"/>
<path d="M324.869 325.959L331.547 313.522L311.869 302.957L305.191 315.395L324.869 325.959Z" fill="white"/>
<path d="M317.472 304.583L314.162 305.58L318.943 321.445L322.252 320.448L317.472 304.583Z" fill="#3B9B91"/>
<path d="M326.65 312.307L325.652 308.998L309.788 313.779L310.785 317.088L326.65 312.307Z" fill="#3B9B91"/>
<path d="M310.544 322.523C287.616 339.039 232.953 302.353 188.456 240.58C176.168 223.52 165.938 206.334 158.053 190.038" stroke="#3B9B91" stroke-width="3.33656" stroke-miterlimit="10"/>
<path d="M145.414 172.507L143.837 175.583L158.581 183.143L160.158 180.068L145.414 172.507Z" fill="#3B9B91"/>
<path d="M157.31 171.243L154.235 169.666L146.674 184.409L149.749 185.987L157.31 171.243Z" fill="#3B9B91"/>
</svg>
