<svg width="422" height="422" viewBox="0 0 422 422" fill="none" xmlns="http://www.w3.org/2000/svg">
<path fill-rule="evenodd" clip-rule="evenodd" d="M67.5721 200.052C64.0324 199.141 60.6986 197.73 57.6381 195.902L50.3259 203.139C45.0451 199.583 40.5134 195.004 37.0108 189.686L44.3196 182.452C42.5548 179.431 41.1984 176.145 40.321 172.666L30.0361 172.612C29.4523 169.629 29.1453 166.545 29.1453 163.39C29.1453 160.063 29.4861 156.817 30.1306 153.682L40.4189 153.736C41.3299 150.267 42.7236 146.997 44.5187 143.991L37.2808 136.679C40.8339 131.398 45.4163 126.866 50.7342 123.364L57.9687 130.673C60.9348 128.941 64.1573 127.598 67.5653 126.721V116.436C70.6258 115.822 73.7876 115.498 77.0303 115.498C80.2696 115.498 83.4348 115.822 86.4953 116.436V126.721C90.0349 127.632 93.3688 129.043 96.4293 130.872L103.741 123.634C109.022 127.19 113.554 131.769 117.057 137.09L109.748 144.325C111.513 147.345 112.869 150.632 113.746 154.111L124.031 154.165C124.615 157.147 124.922 160.232 124.922 163.387C124.922 166.714 124.581 169.96 123.937 173.095L113.648 173.041C112.737 176.509 111.347 179.782 109.549 182.786L116.787 190.098C113.23 195.379 108.651 199.91 103.33 203.413L96.0952 196.104C93.1292 197.835 89.9067 199.178 86.4987 200.055V210.34C83.4381 210.954 80.2764 211.278 77.0337 211.278C73.7943 211.278 70.6292 210.954 67.5687 210.34V200.055L67.5721 200.052ZM77.0371 188.444C90.8752 188.444 102.095 177.228 102.095 163.387C102.095 149.545 90.8752 138.329 77.0371 138.329C63.199 138.329 51.9793 149.548 51.9793 163.387C51.9793 177.225 63.1956 188.444 77.0371 188.444Z" fill="#DFF4F3"/>
<path d="M311.681 316.244H61.5859C55.9643 316.244 50.3562 315.633 44.8661 314.418L8.84861 306.465C6.09853 305.857 6.54057 301.812 9.35476 301.812H363.912C366.726 301.812 367.168 305.857 364.418 306.465L328.4 314.418C322.91 315.629 317.302 316.244 311.681 316.244Z" fill="#DFF4F3"/>
<path d="M77.0378 165.598L77.0378 302.629C77.0378 305.204 79.1257 307.292 81.7011 307.292H286.415C288.99 307.292 291.078 305.204 291.078 302.629V165.598C291.078 163.022 288.99 160.934 286.415 160.934H81.7011C79.1257 160.934 77.0378 163.022 77.0378 165.598Z" fill="#6CB4AD"/>
<path d="M80.3682 165.598L80.3682 302.629C80.3682 303.365 80.9649 303.962 81.701 303.962H286.415C287.151 303.962 287.747 303.365 287.747 302.629V165.598C287.747 164.861 287.151 164.265 286.415 164.265H81.701C80.9649 164.265 80.3682 164.861 80.3682 165.598Z" fill="#0A8276"/>
<mask id="mask0_14261_608" style="mask-type:luminance" maskUnits="userSpaceOnUse" x="80" y="164" width="208" height="140">
<path d="M80.3679 165.597L80.3679 302.628C80.3679 303.364 80.9647 303.961 81.7008 303.961H286.414C287.15 303.961 287.747 303.364 287.747 302.628V165.597C287.747 164.861 287.15 164.264 286.414 164.264H81.7008C80.9647 164.264 80.3679 164.861 80.3679 165.597Z" fill="white"/>
</mask>
<g mask="url(#mask0_14261_608)">
<path d="M378.506 94.3721L74.2195 398.659H278.815L518.503 158.97L378.506 94.3721Z" fill="#08665C"/>
<path d="M145.482 135.184V251.993H296.025V135.184H145.482Z" fill="#08665C"/>
</g>
<path d="M297.758 309.03L70.356 309.03C64.4779 309.03 59.7066 304.258 59.7066 298.38L308.411 298.38C308.411 304.258 303.64 309.03 297.762 309.03H297.758Z" fill="#6CB4AD"/>
<path d="M175.675 104.984V221.793H326.217V104.984L175.675 104.984Z" fill="#DFF4F3"/>
<path d="M158.068 122.595V239.404H308.61V122.595L158.068 122.595Z" fill="white"/>
<path d="M308.61 137.02H158.068V239.407H308.61V137.02Z" stroke="#DFF4F3" stroke-width="2.75007" stroke-miterlimit="10"/>
<path d="M168.551 131.796C169.627 131.796 170.498 130.925 170.498 129.849C170.498 128.774 169.627 127.902 168.551 127.902C167.476 127.902 166.604 128.774 166.604 129.849C166.604 130.925 167.476 131.796 168.551 131.796Z" fill="#9BBA43"/>
<path d="M176.62 131.796C177.695 131.796 178.567 130.924 178.567 129.849C178.567 128.774 177.695 127.902 176.62 127.902C175.545 127.902 174.673 128.774 174.673 129.849C174.673 130.924 175.545 131.796 176.62 131.796Z" fill="#9BBA43"/>
<path d="M184.688 131.796C185.763 131.796 186.635 130.924 186.635 129.849C186.635 128.774 185.763 127.902 184.688 127.902C183.612 127.902 182.741 128.774 182.741 129.849C182.741 130.924 183.612 131.796 184.688 131.796Z" fill="#9BBA43"/>
<path d="M158.068 122.595V239.404H308.61V122.595L158.068 122.595Z" stroke="#DFF4F3" stroke-width="2.75007" stroke-miterlimit="10"/>
<path fill-rule="evenodd" clip-rule="evenodd" d="M199.771 189.049C198.577 188.161 197.537 187.119 196.667 185.961L192.803 187.564C191.359 185.415 190.357 182.992 189.854 180.451L193.718 178.848C193.519 177.438 193.512 175.994 193.714 174.549L189.847 172.95C190.087 171.735 190.445 170.527 190.927 169.339C191.437 168.088 192.064 166.917 192.79 165.834L196.657 167.433C197.534 166.265 198.56 165.246 199.697 164.393L198.094 160.526C200.244 159.081 202.666 158.079 205.207 157.577L206.81 161.44C208.194 161.244 209.614 161.231 211.031 161.427L212.611 157.553C213.856 157.792 215.097 158.157 216.319 158.653C217.54 159.149 218.681 159.76 219.741 160.458L218.161 164.332C219.356 165.219 220.395 166.262 221.266 167.419L225.129 165.817C226.574 167.966 227.576 170.389 228.078 172.93L224.215 174.533C224.417 175.94 224.421 177.387 224.218 178.831L228.085 180.431C227.846 181.646 227.488 182.854 227.005 184.041C226.496 185.293 225.868 186.464 225.143 187.547L221.276 185.948C220.399 187.115 219.373 188.134 218.236 188.988L219.838 192.855C217.689 194.299 215.266 195.301 212.725 195.804L211.123 191.941C209.739 192.136 208.318 192.15 206.901 191.954L205.322 195.828C204.077 195.588 202.835 195.224 201.614 194.728C200.392 194.232 199.252 193.621 198.192 192.923L199.771 189.049ZM205.12 186.127C210.333 188.253 216.282 185.749 218.404 180.535C220.53 175.322 218.026 169.373 212.813 167.251C207.6 165.125 201.651 167.629 199.528 172.842C197.403 178.055 199.906 184.004 205.12 186.127Z" fill="#9BBA43"/>
<path fill-rule="evenodd" clip-rule="evenodd" d="M245.21 213.023C243.367 212.548 241.629 211.815 240.033 210.86L236.224 214.629C233.474 212.777 231.112 210.391 229.29 207.621L233.099 203.852C232.181 202.279 231.473 200.565 231.017 198.753L225.659 198.726C225.355 197.171 225.197 195.565 225.197 193.921C225.197 192.187 225.372 190.496 225.709 188.863L231.068 188.89C231.544 187.085 232.269 185.377 233.204 183.815L229.435 180.006C231.287 177.255 233.673 174.893 236.443 173.071L240.212 176.881C241.758 175.98 243.435 175.281 245.213 174.823V169.464C246.806 169.144 248.456 168.975 250.143 168.975C251.83 168.975 253.48 169.144 255.073 169.464V174.823C256.915 175.298 258.653 176.031 260.249 176.985L264.059 173.216C266.809 175.069 269.171 177.455 270.996 180.225L267.187 183.994C268.104 185.566 268.813 187.281 269.269 189.093L274.627 189.12C274.931 190.675 275.093 192.281 275.093 193.925C275.093 195.659 274.917 197.35 274.58 198.983L269.221 198.956C268.746 200.761 268.02 202.468 267.085 204.031L270.854 207.84C269.002 210.59 266.616 212.952 263.846 214.775L260.077 210.965C258.531 211.866 256.854 212.564 255.08 213.023V218.382C253.487 218.702 251.837 218.871 250.15 218.871C248.462 218.871 246.812 218.702 245.22 218.382V213.023H245.21ZM250.14 206.976C257.347 206.976 263.191 201.132 263.191 193.925C263.191 186.717 257.347 180.873 250.14 180.873C242.929 180.873 237.088 186.717 237.088 193.925C237.088 201.132 242.932 206.976 250.14 206.976Z" fill="#08665C"/>
<path d="M317.772 170.819L304.847 183.744L385.838 264.735L398.763 251.81L317.772 170.819Z" fill="#DFF4F3"/>
<path d="M317.772 170.819L304.847 183.744L385.838 264.735L398.763 251.81L317.772 170.819Z" fill="#B8DEDA"/>
<mask id="mask1_14261_608" style="mask-type:luminance" maskUnits="userSpaceOnUse" x="304" y="170" width="95" height="95">
<path d="M317.773 170.82L304.848 183.745L385.838 264.735L398.763 251.81L317.773 170.82Z" fill="white"/>
</mask>
<g mask="url(#mask1_14261_608)">
<path d="M392.637 253.164L313.892 174.419L308.445 179.866L387.19 258.611L392.637 253.164Z" fill="#6CB4AD"/>
</g>
<path d="M279.911 156.017H299.226L303.906 166.522L299.226 177.026H279.911C283.745 184.534 291.533 189.686 300.539 189.686C313.331 189.686 323.703 179.314 323.703 166.522C323.703 153.73 313.334 143.357 300.539 143.357C291.533 143.357 283.745 148.51 279.911 156.017Z" fill="#B8DEDA"/>
<path d="M387.043 253.016C380.648 259.41 380.648 269.783 387.043 276.177C393.437 282.571 403.81 282.571 410.204 276.177C416.599 269.783 416.599 259.41 410.204 253.016C403.81 246.621 393.437 246.621 387.043 253.016Z" fill="#B8DEDA"/>
<path d="M393.667 259.639C390.93 262.376 390.93 266.813 393.667 269.549C396.403 272.286 400.841 272.286 403.577 269.549C406.314 266.813 406.314 262.376 403.577 259.639C400.841 256.903 396.403 256.903 393.667 259.639Z" fill="white"/>
</svg>
