<svg width="182" height="80" viewBox="0 0 182 80" fill="none" xmlns="http://www.w3.org/2000/svg">
<path d="M135.382 53.5532C142.177 53.5532 144.292 46.368 144.292 39.7603C144.292 30.9072 140.574 26.2882 135.382 26.2882C128.844 26.2882 126.536 33.4733 126.6 39.8886C126.664 46.2397 128.459 53.5532 135.382 53.5532ZM132.049 39.6961C132.049 37.0659 132.049 30.9072 135.382 30.9072C138.972 30.9072 138.844 37.0017 138.844 39.8245C138.844 42.5189 138.844 49.0625 135.51 49.0625C131.921 48.9983 132.049 42.4547 132.049 39.6961ZM115.639 53.5532C118.395 53.5532 120.767 52.4626 123.011 50.0889L121.023 46.368C119.485 48.036 117.947 48.9342 116.088 48.9342C114.549 48.9342 113.267 48.036 112.498 46.4964C111.857 45.1491 111.729 43.6095 111.729 41.9415V41.4283H123.267V40.2735C123.267 34.5639 122.562 31.4204 120.767 29.0468C119.421 27.2505 117.434 26.2882 114.998 26.2882C112.434 26.2882 110.319 27.4429 108.78 29.6883C107.113 32.1261 106.408 35.3979 106.408 39.8886C106.344 48.4851 109.742 53.5532 115.639 53.5532ZM115.062 30.5223C116.344 30.5223 117.113 31.228 117.626 32.3827C118.011 33.4092 118.203 35.1413 118.203 37.1942H111.729C111.793 32.6393 112.754 30.5223 115.062 30.5223ZM148.523 52.9116H153.523V33.6658C154.741 32.1903 156.151 31.3563 157.176 31.3563C157.817 31.3563 158.458 31.4846 158.843 31.9978C159.228 32.5752 159.42 33.4092 159.42 35.3979V52.9116H164.42V33.0884C164.42 31.3563 164.228 29.6241 163.202 28.3411C162.305 27.1863 160.894 26.4806 159.099 26.4806C156.792 26.4806 154.42 27.8279 153.138 29.3675C153.074 28.0203 152.625 26.7373 152.497 26.2882L147.818 27.5071C148.074 28.9185 148.459 30.6506 148.459 33.7941V52.9116H148.523ZM90.4472 29.3675C90.3831 28.0203 89.9343 26.7373 89.8061 26.2882L85.1268 27.5071C85.3832 28.9185 85.7678 30.6506 85.7678 33.7941V52.8475H90.7677V33.6016C91.9856 32.1261 93.3958 31.2921 94.4214 31.2921C95.0624 31.2921 95.7034 31.4204 96.0881 31.9336C96.4727 32.511 96.665 33.345 96.665 35.3337V52.8475H101.665V33.0884C101.665 31.3563 101.473 29.6241 100.447 28.3411C99.5495 27.1863 98.1393 26.4806 96.3445 26.4806C94.1009 26.4806 91.7292 27.8279 90.4472 29.3675ZM29.2946 18.1408C32.2433 18.1408 34.615 15.7671 34.615 12.8161C34.615 9.86505 32.2433 7.49139 29.2946 7.49139C26.346 7.49139 23.9742 9.86505 23.9742 12.8161C23.9742 15.7671 26.346 18.1408 29.2946 18.1408ZM53.8454 52.9116V33.0884C53.8454 31.3563 53.6531 29.6241 52.6275 28.3411C51.73 27.1863 50.3198 26.4806 48.525 26.4806C46.2173 26.4806 43.8456 27.8279 42.5636 29.3675C42.4995 28.0203 42.0508 26.7373 41.9226 26.2882L37.3073 27.5713C37.5637 28.9826 37.9483 30.7147 37.9483 33.8582V52.9116H42.9482V33.6658C44.1661 32.1903 45.5763 31.3563 46.602 31.3563C47.243 31.3563 47.884 31.4846 48.2686 31.9978C48.6532 32.5752 48.8455 33.4092 48.8455 35.3979V52.9116H53.8454ZM76.8577 16.7294C74.9988 16.7294 73.5244 18.2049 73.5244 20.0654C73.5244 21.9258 74.9988 23.4013 76.7936 23.4013C78.6525 23.4013 80.1269 21.9258 80.1269 20.0654C80.1269 18.2049 78.6525 16.7294 76.8577 16.7294ZM26.9229 52.9116H31.9228V21.6692L26.9229 22.3107V52.9116ZM67.7553 19.8088C68.6528 19.8088 69.5502 20.1295 70.1271 20.5786L71.5373 16.6653C70.1912 15.703 68.7169 15.2539 66.8579 15.2539C65.5759 15.2539 64.2298 15.5747 63.0119 16.537C61.7939 17.5634 60.5119 19.6163 60.5119 23.4655C60.5119 25.1334 60.576 26.8656 60.576 26.8656H58.8453V31.2921H60.576V52.8475H65.7041V31.3563H69.4861L70.4476 26.9297H65.7682V22.9522C65.7682 21.0277 66.5374 19.8088 67.7553 19.8088ZM74.2937 52.9116H79.3577V26.4806L74.2937 27.1222V52.9116Z" fill="#005DA9"/>
<path d="M154.163 67.0253C137.241 72.0292 116.664 74.2104 96.5363 74.2104C45.4477 74.2104 12.4997 59.1986 10.1921 39.3754C9.35877 31.9337 15.192 24.6844 24.9354 18.5257C23.2046 17.2426 22.1149 15.1898 22.0508 12.8802C7.94854 20.322 0 30.0732 0 39.9528C0 61.8289 39.0376 80.305 97.0491 79.5351C117.241 79.2785 134.1 76.3916 149.356 71.3877C167.496 65.4856 178.906 57.0174 181.663 53.2966C178.394 56.2476 170.637 62.1497 154.163 67.0253ZM46.5374 8.77446C49.9348 7.61971 54.7424 6.14419 54.7424 6.14419C68.2677 2.42332 83.2033 0.242125 97.1133 0.370431C81.088 -0.591863 66.4729 0.370431 53.7168 2.67994C53.7168 2.67994 49.4861 3.38562 44.9349 4.54037C44.9349 4.54037 42.7555 5.11775 41.4093 5.50266C40.0632 5.88758 38.2043 6.4008 38.2043 6.4008C36.9223 6.78572 35.6402 7.23479 34.3582 7.68386C35.6402 8.96692 36.4095 10.6349 36.4736 12.5595C38.7171 11.533 43.0119 9.99337 46.5374 8.77446Z" fill="#E30034"/>
</svg>
